<svg width="28" height="28" viewBox="0 0 28 28" fill="none" xmlns="http://www.w3.org/2000/svg">
    <path d="M23.8 2.8H22.4V1.4C22.4 0.56 21.84 0 21 0C20.16 0 19.6 0.56 19.6 1.4V2.8H8.4V1.4C8.4 0.56 7.84 0 7 0C6.16 0 5.6 0.56 5.6 1.4V2.8H4.2C1.82 2.8 0 4.62 0 7V8.4H28V7C28 4.62 26.18 2.8 23.8 2.8ZM0 23.8C0 26.18 1.82 28 4.2 28H23.8C26.18 28 28 26.18 28 23.8V11.2H0V23.8ZM21 14C21.84 14 22.4 14.56 22.4 15.4C22.4 16.24 21.84 16.8 21 16.8C20.16 16.8 19.6 16.24 19.6 15.4C19.6 14.56 20.16 14 21 14ZM21 19.6C21.84 19.6 22.4 20.16 22.4 21C22.4 21.84 21.84 22.4 21 22.4C20.16 22.4 19.6 21.84 19.6 21C19.6 20.16 20.16 19.6 21 19.6ZM14 14C14.84 14 15.4 14.56 15.4 15.4C15.4 16.24 14.84 16.8 14 16.8C13.16 16.8 12.6 16.24 12.6 15.4C12.6 14.56 13.16 14 14 14ZM14 19.6C14.84 19.6 15.4 20.16 15.4 21C15.4 21.84 14.84 22.4 14 22.4C13.16 22.4 12.6 21.84 12.6 21C12.6 20.16 13.16 19.6 14 19.6ZM7 14C7.84 14 8.4 14.56 8.4 15.4C8.4 16.24 7.84 16.8 7 16.8C6.16 16.8 5.6 16.24 5.6 15.4C5.6 14.56 6.16 14 7 14ZM7 19.6C7.84 19.6 8.4 20.16 8.4 21C8.4 21.84 7.84 22.4 7 22.4C6.16 22.4 5.6 21.84 5.6 21C5.6 20.16 6.16 19.6 7 19.6Z" fill="#B42024"/>
</svg>
