<svg width="21" height="27" viewBox="0 0 21 27" fill="none" xmlns="http://www.w3.org/2000/svg">
    <path d="M10.5 0C7.71624 0.0033367 5.04744 1.12194 3.07903 3.11045C1.11061 5.09895 0.00330299 7.79498 0 10.6071C0 19.6831 9.54545 26.5386 9.95188 26.8258C10.1126 26.9392 10.3039 27 10.5 27C10.6961 27 10.8874 26.9392 11.0481 26.8258C11.4545 26.5386 21 19.6831 21 10.6071C20.9967 7.79498 19.8894 5.09895 17.921 3.11045C15.9526 1.12194 13.2838 0.00333638 10.5 0ZM10.5007 6.75035C11.2559 6.75035 11.9941 6.97657 12.622 7.4004C13.2499 7.82422 13.7393 8.42663 14.0282 9.13143C14.3172 9.83623 14.3928 10.6118 14.2455 11.36C14.0982 12.1082 13.7345 12.7955 13.2006 13.3349C12.6666 13.8743 11.9862 14.2417 11.2456 14.3905C10.5049 14.5394 9.73723 14.463 9.03954 14.171C8.34186 13.8791 7.74554 13.3847 7.326 12.7504C6.90645 12.1161 6.68252 11.3704 6.68252 10.6075C6.6825 10.101 6.78125 9.59939 6.97313 9.13141C7.16501 8.66343 7.44625 8.23822 7.8008 7.88005C8.15536 7.52188 8.57628 7.23776 9.03953 7.04393C9.50278 6.85009 9.99928 6.75034 10.5007 6.75035Z" fill="#B42024"/>
</svg>
