<svg width="359" height="63" viewBox="0 0 359 63" fill="none" xmlns="http://www.w3.org/2000/svg">
    <path d="M221.2 48.592V43.6688H222.135V48.592H222.873V51.152H221.987V49.3797H217.507V43.6688H218.443V48.592H221.2Z" fill="black"/>
    <path d="M225.335 46.9181C225.335 47.1643 225.384 47.4105 225.483 47.6074C225.581 47.8043 225.68 48.0012 225.827 48.1489C225.975 48.2966 226.172 48.4443 226.369 48.5428C226.566 48.6412 226.812 48.6905 227.107 48.6905C227.255 48.6905 227.403 48.6905 227.55 48.6905C227.698 48.6905 227.846 48.6412 227.944 48.5428C228.092 48.4936 228.19 48.3951 228.289 48.2966C228.387 48.1982 228.486 48.0505 228.535 47.9028H229.471C229.421 48.1982 229.274 48.3951 229.126 48.6413C228.978 48.8382 228.781 49.0351 228.584 49.1336C228.387 49.2813 228.141 49.3797 227.895 49.429C227.649 49.4782 227.354 49.5274 227.107 49.5274C226.664 49.5274 226.27 49.4782 225.926 49.3305C225.581 49.1828 225.335 48.9859 225.089 48.7397C224.892 48.4936 224.695 48.1982 224.597 47.8043C224.498 47.4597 224.449 47.0658 224.449 46.6227C224.449 46.1797 224.498 45.7858 224.646 45.4412C224.793 45.0965 224.941 44.8012 225.138 44.5058C225.384 44.2596 225.63 44.0627 225.975 43.915C226.32 43.7673 226.664 43.718 227.157 43.718C227.649 43.718 227.994 43.8165 228.338 44.0134C228.683 44.2104 228.929 44.4073 229.126 44.7027C229.323 44.9981 229.471 45.2935 229.569 45.6381C229.667 45.9827 229.667 46.2781 229.667 46.5735C229.667 46.6227 229.667 46.7212 229.667 46.7704C229.667 46.8197 229.667 46.9181 229.667 46.9674H225.433L225.335 46.9181ZM228.634 46.1304C228.634 45.6381 228.486 45.2442 228.19 44.9488C227.895 44.6535 227.501 44.5058 227.009 44.5058C226.763 44.5058 226.517 44.5058 226.32 44.6535C226.123 44.8012 225.926 44.8504 225.827 44.9981C225.68 45.1458 225.581 45.3427 225.483 45.5396C225.384 45.7366 225.335 45.9335 225.335 46.1797H228.634V46.1304Z" fill="black"/>
    <path d="M231.637 49.429V43.718H232.572V46.2289H235.428V43.718H236.363V49.429H235.428V47.0166H232.572V49.429H231.637Z" fill="black"/>
    <path d="M242.862 43.718V44.555H240.892V49.429H239.957V44.555H237.988V43.718H242.812H242.862Z" fill="black"/>
    <path d="M245.372 51.4967H244.437V43.718H245.323V44.6042C245.569 44.3088 245.816 44.0626 246.16 43.9149C246.505 43.7672 246.849 43.6688 247.243 43.6688C247.686 43.6688 248.08 43.7672 248.376 43.9149C248.671 44.0626 248.917 44.2595 249.163 44.5057C249.36 44.7519 249.508 45.0965 249.606 45.4411C249.705 45.7857 249.754 46.1796 249.754 46.5735C249.754 46.9673 249.705 47.3612 249.606 47.755C249.508 48.0996 249.36 48.395 249.163 48.6904C248.966 48.9366 248.671 49.1335 248.376 49.2812C248.08 49.4289 247.686 49.5274 247.243 49.5274C246.8 49.5274 246.456 49.4781 246.16 49.3304C245.865 49.1828 245.619 49.0351 245.422 48.7889V51.5459L245.372 51.4967ZM247.145 48.6904C247.44 48.6904 247.736 48.6412 247.933 48.5427C248.129 48.4443 248.326 48.2966 248.474 48.0996C248.622 47.9027 248.72 47.7058 248.769 47.4596C248.819 47.2135 248.868 46.9181 248.868 46.6227C248.868 46.3273 248.868 46.0811 248.769 45.7857C248.72 45.5396 248.622 45.2934 248.474 45.1457C248.326 44.9488 248.179 44.8011 247.933 44.7026C247.736 44.6042 247.44 44.5549 247.145 44.5549C246.751 44.5549 246.456 44.6534 246.209 44.8503C245.963 45.0473 245.717 45.2934 245.619 45.5888C245.52 45.7365 245.471 45.9334 245.471 46.0811C245.471 46.2288 245.471 46.4258 245.471 46.6227C245.471 46.8196 245.471 47.0165 245.471 47.2135C245.471 47.4104 245.569 47.5581 245.619 47.755C245.766 48.0504 245.963 48.2473 246.209 48.4443C246.456 48.6412 246.8 48.7397 247.194 48.7397L247.145 48.6904Z" fill="black"/>
    <path d="M256.45 51.4967H255.514V43.718H256.4V44.6042C256.647 44.3088 256.893 44.0626 257.237 43.9149C257.582 43.7672 257.927 43.6688 258.321 43.6688C258.764 43.6688 259.157 43.7672 259.453 43.9149C259.748 44.0626 259.994 44.2595 260.241 44.5057C260.437 44.7519 260.585 45.0965 260.684 45.4411C260.782 45.7857 260.831 46.1796 260.831 46.5735C260.831 46.9673 260.782 47.3612 260.684 47.755C260.585 48.0996 260.437 48.395 260.241 48.6904C260.044 48.9366 259.748 49.1335 259.453 49.2812C259.157 49.4289 258.764 49.5274 258.321 49.5274C257.877 49.5274 257.533 49.4781 257.237 49.3304C256.942 49.1828 256.696 49.0351 256.499 48.7889V51.5459L256.45 51.4967ZM258.222 48.6904C258.517 48.6904 258.813 48.6412 259.01 48.5427C259.207 48.4443 259.404 48.2966 259.551 48.0996C259.699 47.9027 259.797 47.7058 259.847 47.4596C259.896 47.2135 259.945 46.9181 259.945 46.6227C259.945 46.3273 259.945 46.0811 259.847 45.7857C259.797 45.5396 259.699 45.2934 259.551 45.1457C259.404 44.9488 259.256 44.8011 259.01 44.7026C258.813 44.6042 258.517 44.5549 258.222 44.5549C257.828 44.5549 257.533 44.6534 257.287 44.8503C257.04 45.0473 256.794 45.2934 256.696 45.5888C256.597 45.7365 256.548 45.9334 256.548 46.0811C256.548 46.2288 256.548 46.4258 256.548 46.6227C256.548 46.8196 256.548 47.0165 256.548 47.2135C256.548 47.4104 256.647 47.5581 256.696 47.755C256.844 48.0504 257.04 48.2473 257.287 48.4443C257.533 48.6412 257.877 48.7397 258.271 48.7397L258.222 48.6904Z" fill="black"/>
    <path d="M266.591 48.6903C266.591 48.6903 266.345 48.9857 266.148 49.0842C265.951 49.1827 265.804 49.2811 265.656 49.3304C265.508 49.3796 265.311 49.4288 265.164 49.4288C265.016 49.4288 264.819 49.4288 264.671 49.4288C264.425 49.4288 264.13 49.4288 263.933 49.3304C263.687 49.2811 263.49 49.1827 263.293 49.035C263.096 48.8873 262.948 48.6903 262.85 48.4934C262.751 48.2965 262.702 48.0503 262.702 47.7549C262.702 47.4103 262.751 47.1641 262.899 46.918C262.998 46.7211 263.194 46.5241 263.391 46.3764C263.588 46.2287 263.834 46.1303 264.081 46.081C264.327 46.0318 264.622 45.9826 264.918 45.9826H266.591C266.591 45.4903 266.493 45.0964 266.296 44.8502C266.099 44.5548 265.755 44.4072 265.262 44.4072C264.967 44.4072 264.671 44.4071 264.475 44.5548C264.278 44.7025 264.081 44.801 263.982 45.0472H262.998C262.998 44.801 263.145 44.5548 263.293 44.3579C263.441 44.161 263.638 44.0133 263.834 43.9148C264.031 43.8164 264.278 43.7179 264.524 43.6687C264.77 43.6194 265.016 43.5702 265.262 43.5702C265.705 43.5702 266.05 43.6194 266.345 43.7671C266.641 43.9148 266.887 44.1118 267.035 44.3087C267.232 44.5548 267.33 44.801 267.428 45.1456C267.478 45.4903 267.527 45.8349 267.527 46.2287V49.3304H266.739V48.5919L266.591 48.6903ZM265.459 46.8195C265.459 46.8195 265.065 46.8195 264.868 46.8195C264.622 46.8195 264.425 46.8195 264.228 46.8688C264.031 46.918 263.834 47.0164 263.736 47.1149C263.588 47.2626 263.539 47.4103 263.539 47.6565C263.539 47.8042 263.539 47.9519 263.638 48.0503C263.687 48.1488 263.785 48.2472 263.884 48.3457C263.982 48.4442 264.13 48.4934 264.278 48.5426C264.425 48.5426 264.573 48.5919 264.721 48.5919C265.262 48.5919 265.705 48.4442 266.001 48.198C266.296 47.9519 266.493 47.558 266.493 47.0657V46.7703H265.459V46.8195Z" fill="black"/>
    <path d="M273.041 46.3765C273.435 46.4749 273.681 46.6719 273.829 46.918C273.976 47.1642 274.026 47.4596 274.026 47.8042C274.026 48.0996 273.927 48.3458 273.829 48.5919C273.73 48.8381 273.533 48.9858 273.287 49.1335C273.09 49.2812 272.844 49.3796 272.549 49.4289C272.253 49.4781 272.007 49.5273 271.712 49.5273C271.416 49.5273 271.17 49.5273 270.875 49.4289C270.579 49.3796 270.333 49.2812 270.136 49.1827C269.89 49.035 269.742 48.8873 269.595 48.6904C269.447 48.4935 269.348 48.2473 269.348 47.9027H270.235C270.235 47.9027 270.333 48.1981 270.432 48.2965C270.53 48.395 270.678 48.4934 270.825 48.5427C270.973 48.5919 271.121 48.6411 271.269 48.6904C271.416 48.6904 271.564 48.6904 271.712 48.6904C271.859 48.6904 272.007 48.6904 272.204 48.6904C272.352 48.6904 272.499 48.6411 272.647 48.5427C272.795 48.4934 272.893 48.395 272.992 48.2473C273.09 48.1488 273.139 48.0011 273.139 47.8042C273.139 47.6565 273.139 47.5088 273.041 47.4103C272.992 47.2626 272.893 47.2134 272.746 47.115C272.647 47.0657 272.499 47.0165 272.302 47.0165C272.105 47.0165 272.007 47.0165 271.859 47.0165H270.825V46.1795H271.662C271.662 46.1795 271.958 46.1795 272.105 46.1795C272.253 46.1795 272.401 46.1303 272.499 46.0318C272.598 45.9826 272.696 45.8842 272.795 45.7857C272.844 45.6872 272.893 45.5395 272.893 45.3426C272.893 45.1949 272.893 45.0472 272.795 44.9487C272.696 44.8503 272.647 44.7518 272.549 44.7026C272.45 44.6534 272.302 44.6041 272.155 44.5549C272.007 44.5549 271.859 44.5549 271.761 44.5549C271.613 44.5549 271.515 44.5549 271.367 44.5549C271.219 44.5549 271.072 44.6041 270.973 44.6533C270.875 44.7026 270.727 44.801 270.678 44.8503C270.579 44.9487 270.53 45.0472 270.53 45.1949H269.644C269.644 44.8995 269.742 44.6533 269.841 44.4564C269.989 44.2595 270.136 44.1118 270.333 43.9641C270.53 43.8656 270.776 43.7672 271.022 43.7179C271.269 43.6687 271.515 43.6195 271.81 43.6195C272.105 43.6195 272.302 43.6195 272.549 43.7179C272.795 43.7672 273.041 43.8656 273.238 43.9641C273.435 44.0626 273.582 44.2595 273.73 44.4564C273.878 44.6533 273.927 44.8995 273.927 45.1949C273.927 45.4411 273.878 45.6872 273.73 45.8842C273.632 46.0811 273.435 46.2288 273.189 46.3765H273.041Z" fill="black"/>
    <path d="M276.044 43.718H278.259C278.653 43.718 278.949 43.718 279.195 43.8165C279.441 43.8165 279.687 43.9642 279.835 44.0627C279.983 44.1611 280.13 44.3088 280.229 44.5058C280.327 44.7027 280.376 44.8996 280.376 45.1458C280.376 45.7366 280.13 46.1304 279.589 46.3766C279.983 46.475 280.278 46.6227 280.426 46.8689C280.623 47.1151 280.672 47.4104 280.672 47.7551C280.672 48.0505 280.623 48.2966 280.524 48.4936C280.426 48.6905 280.278 48.8382 280.13 48.9859C279.983 49.1336 279.736 49.232 279.49 49.3305C279.244 49.429 278.949 49.429 278.653 49.429H275.995V43.718H276.044ZM276.979 44.555V46.1797H277.767C277.767 46.1797 278.112 46.1797 278.309 46.1797C278.506 46.1797 278.653 46.1796 278.801 46.0812C278.998 46.032 279.146 45.9335 279.244 45.7858C279.392 45.6381 279.441 45.4904 279.441 45.3427C279.441 45.1458 279.441 44.9981 279.293 44.8996C279.146 44.8012 279.096 44.7519 278.949 44.7027C278.801 44.6535 278.703 44.6535 278.506 44.6042C278.358 44.6042 278.21 44.6042 278.063 44.6042H276.881L276.979 44.555ZM276.979 48.6413H278.506C278.506 48.6413 278.85 48.6413 278.998 48.6413C279.146 48.6413 279.293 48.592 279.392 48.4936C279.49 48.4443 279.589 48.3459 279.687 48.2474C279.736 48.1489 279.786 48.0012 279.786 47.8535C279.786 47.6566 279.786 47.4597 279.638 47.3612C279.49 47.2628 279.392 47.1643 279.244 47.0658C279.096 47.0658 278.949 47.0166 278.752 46.9674C278.555 46.9674 278.358 46.9674 278.161 46.9674H276.979V48.6413Z" fill="black"/>
    <path d="M283.675 49.4289H282.789V43.718H283.724V48.0996C283.724 48.0996 283.823 47.9027 283.921 47.755C284.02 47.6073 284.069 47.5581 284.118 47.4596L286.875 43.6688H287.81V49.3797H286.875V44.998C286.875 44.998 286.777 45.195 286.678 45.2934C286.629 45.3919 286.53 45.4903 286.481 45.5396L283.675 49.3304V49.4289Z" fill="black"/>
    <path d="M294.26 43.718V44.555H292.291V49.429H291.355V44.555H289.386V43.718H294.211H294.26Z" fill="black"/>
    <path d="M296.771 49.4289H295.885V43.718H296.82V48.0996C296.82 48.0996 296.918 47.9027 297.017 47.755C297.115 47.6073 297.165 47.5581 297.214 47.4596L299.971 43.6688H300.906V49.3797H299.971V44.998C299.971 44.998 299.872 45.195 299.774 45.2934C299.725 45.3919 299.626 45.4903 299.577 45.5396L296.771 49.3304V49.4289Z" fill="black"/>
    <path d="M307.503 49.4289H306.568V47.3119H305.239L303.86 49.4289H302.777L304.254 47.1642C303.86 47.0658 303.516 46.8688 303.269 46.5735C303.023 46.2781 302.925 45.9827 302.876 45.5396C302.876 45.1457 302.925 44.8503 303.072 44.6042C303.22 44.358 303.368 44.1611 303.565 44.0134C303.762 43.8657 304.008 43.7672 304.254 43.718C304.5 43.718 304.796 43.6688 305.091 43.6688H307.405V49.3797L307.503 49.4289ZM306.568 44.5549H305.337C305.337 44.5549 304.992 44.5549 304.796 44.5549C304.599 44.5549 304.451 44.6042 304.303 44.7026C304.156 44.7519 304.106 44.8996 304.008 44.998C303.909 45.1457 303.909 45.2934 303.86 45.4903C303.86 45.6873 303.909 45.835 304.008 45.9827C304.106 46.1304 304.205 46.2288 304.402 46.2781C304.599 46.3765 304.845 46.4258 305.091 46.475C305.337 46.5242 305.633 46.475 305.879 46.475H306.568V44.5057V44.5549Z" fill="black"/>
    <path d="M223.76 62.4262H222.824V55.6322H218.689V62.4262H217.753V54.746H223.76V62.4262Z" fill="black"/>
    <path d="M226.96 59.9152C226.96 60.1613 227.009 60.4075 227.107 60.6044C227.206 60.8013 227.304 60.9983 227.452 61.146C227.6 61.2937 227.797 61.4414 227.994 61.5398C228.191 61.6383 228.437 61.6875 228.732 61.6875C228.88 61.6875 229.027 61.6875 229.175 61.6875C229.323 61.6875 229.471 61.6383 229.569 61.5398C229.717 61.4906 229.815 61.3921 229.914 61.2937C230.012 61.1952 230.111 61.0475 230.16 60.8998H231.095C231.046 61.1952 230.898 61.3921 230.751 61.6383C230.603 61.8352 230.406 62.0321 230.209 62.1306C230.012 62.2783 229.766 62.3768 229.52 62.426C229.274 62.4752 228.978 62.5245 228.732 62.5245C228.289 62.5245 227.895 62.4752 227.551 62.3275C227.206 62.1798 226.96 61.9829 226.714 61.7368C226.517 61.4906 226.32 61.1952 226.221 60.8013C226.123 60.4567 226.074 60.0629 226.074 59.6198C226.074 59.1767 226.123 58.7828 226.27 58.4382C226.418 58.0936 226.566 57.7982 226.763 57.5028C227.009 57.2566 227.255 57.0597 227.6 56.912C227.944 56.7643 228.289 56.7151 228.781 56.7151C229.274 56.7151 229.618 56.8135 229.963 57.0105C230.308 57.2074 230.554 57.4043 230.751 57.6997C230.948 57.9951 231.095 58.2905 231.194 58.6351C231.292 58.9798 231.292 59.2752 231.292 59.5705C231.292 59.6198 231.292 59.7182 231.292 59.7675C231.292 59.8167 231.292 59.9152 231.292 59.9644H227.058L226.96 59.9152ZM230.258 59.1275C230.258 58.6351 230.111 58.2413 229.815 57.9459C229.52 57.6505 229.126 57.5028 228.634 57.5028C228.387 57.5028 228.141 57.5028 227.944 57.6505C227.747 57.7982 227.551 57.8474 227.452 57.9951C227.304 58.1428 227.206 58.3397 227.107 58.5367C227.009 58.7336 226.96 58.9305 226.96 59.1767H230.258V59.1275Z" fill="black"/>
    <path d="M233.261 62.426V56.7151H234.197V59.2259H237.052V56.7151H237.988V62.426H237.052V60.0136H234.197V62.426H233.261Z" fill="black"/>
    <path d="M243.6 59.3738C243.994 59.4723 244.24 59.6692 244.388 59.9154C244.536 60.1615 244.585 60.4569 244.585 60.8015C244.585 61.0969 244.486 61.3431 244.388 61.5892C244.289 61.8354 244.092 61.9831 243.846 62.1308C243.649 62.2785 243.403 62.377 243.108 62.4262C242.812 62.4754 242.566 62.5246 242.271 62.5246C241.975 62.5246 241.729 62.5247 241.434 62.4262C241.139 62.377 240.892 62.2785 240.695 62.18C240.449 62.0323 240.302 61.8846 240.154 61.6877C240.006 61.4908 239.908 61.2446 239.908 60.9H240.794C240.794 60.9 240.892 61.1954 240.991 61.2938C241.089 61.3923 241.237 61.4908 241.385 61.54C241.532 61.5892 241.68 61.6385 241.828 61.6877C241.975 61.6877 242.123 61.6877 242.271 61.6877C242.419 61.6877 242.566 61.6877 242.763 61.6877C242.911 61.6877 243.059 61.6385 243.206 61.54C243.354 61.4908 243.452 61.3923 243.551 61.2446C243.649 61.1462 243.699 60.9985 243.699 60.8015C243.699 60.6538 243.699 60.5061 243.6 60.4077C243.551 60.26 243.452 60.2107 243.305 60.1123C243.206 60.063 243.059 60.0138 242.862 60.0138C242.665 60.0138 242.566 60.0138 242.419 60.0138H241.385V59.1769H242.222C242.222 59.1769 242.517 59.1769 242.665 59.1769C242.812 59.1769 242.96 59.1276 243.059 59.0292C243.157 58.9799 243.255 58.8815 243.354 58.783C243.403 58.6845 243.452 58.5369 243.452 58.3399C243.452 58.1922 243.452 58.0445 243.354 57.9461C243.255 57.8476 243.206 57.7491 243.108 57.6999C243.009 57.6507 242.862 57.6014 242.714 57.5522C242.566 57.5522 242.419 57.5522 242.32 57.5522C242.172 57.5522 242.074 57.5522 241.926 57.5522C241.779 57.5522 241.631 57.6014 241.532 57.6507C241.434 57.6999 241.286 57.7984 241.237 57.8476C241.139 57.9461 241.089 58.0445 241.089 58.1922H240.203C240.203 57.8968 240.302 57.6507 240.4 57.4538C240.548 57.2568 240.695 57.1091 240.892 56.9614C241.089 56.863 241.335 56.7645 241.582 56.7153C241.828 56.666 242.074 56.6168 242.369 56.6168C242.665 56.6168 242.862 56.6168 243.108 56.7153C243.354 56.7645 243.6 56.863 243.797 56.9614C243.994 57.0599 244.142 57.2568 244.289 57.4538C244.437 57.6507 244.486 57.8968 244.486 58.1922C244.486 58.4384 244.437 58.6846 244.289 58.8815C244.191 59.0784 243.994 59.2261 243.748 59.3738H243.6Z" fill="black"/>
    <path d="M247.292 59.9152C247.292 60.1613 247.342 60.4075 247.44 60.6044C247.539 60.8013 247.637 60.9983 247.785 61.146C247.933 61.2937 248.129 61.4414 248.326 61.5398C248.523 61.6383 248.769 61.6875 249.065 61.6875C249.213 61.6875 249.36 61.6875 249.508 61.6875C249.656 61.6875 249.803 61.6383 249.902 61.5398C250.049 61.4906 250.148 61.3921 250.246 61.2937C250.345 61.1952 250.443 61.0475 250.493 60.8998H251.428C251.379 61.1952 251.231 61.3921 251.083 61.6383C250.936 61.8352 250.739 62.0321 250.542 62.1306C250.345 62.2783 250.099 62.3768 249.853 62.426C249.606 62.4752 249.311 62.5245 249.065 62.5245C248.622 62.5245 248.228 62.4752 247.883 62.3275C247.539 62.1798 247.292 61.9829 247.046 61.7368C246.849 61.4906 246.652 61.1952 246.554 60.8013C246.456 60.4567 246.406 60.0629 246.406 59.6198C246.406 59.1767 246.456 58.7828 246.603 58.4382C246.751 58.0936 246.899 57.7982 247.096 57.5028C247.342 57.2566 247.588 57.0597 247.933 56.912C248.277 56.7643 248.622 56.7151 249.114 56.7151C249.606 56.7151 249.951 56.8135 250.296 57.0105C250.64 57.2074 250.886 57.4043 251.083 57.6997C251.28 57.9951 251.428 58.2905 251.526 58.6351C251.625 58.9798 251.625 59.2752 251.625 59.5705C251.625 59.6198 251.625 59.7182 251.625 59.7675C251.625 59.8167 251.625 59.9152 251.625 59.9644H247.391L247.292 59.9152ZM250.591 59.1275C250.591 58.6351 250.443 58.2413 250.148 57.9459C249.853 57.6505 249.459 57.5028 248.966 57.5028C248.72 57.5028 248.474 57.5028 248.277 57.6505C248.08 57.7982 247.883 57.8474 247.785 57.9951C247.637 58.1428 247.539 58.3397 247.44 58.5367C247.342 58.7336 247.292 58.9305 247.292 59.1767H250.591V59.1275Z" fill="black"/>
    <path d="M253.594 62.426V56.7151H254.53V59.2259H257.385V56.7151H258.32V62.426H257.385V60.0136H254.53V62.426H253.594Z" fill="black"/>
    <path d="M262.998 62.4754C262.554 62.4754 262.161 62.4262 261.816 62.2785C261.471 62.1308 261.225 61.9339 260.979 61.6877C260.733 61.4415 260.585 61.0969 260.487 60.7523C260.388 60.4077 260.339 60.0138 260.339 59.5707C260.339 59.1276 260.388 58.783 260.536 58.4384C260.684 58.0938 260.831 57.7491 261.028 57.503C261.225 57.2568 261.521 57.0107 261.865 56.863C262.21 56.7153 262.604 56.6168 263.096 56.6168C263.391 56.6168 263.638 56.6168 263.884 56.7153C264.13 56.7645 264.327 56.863 264.524 57.0107C264.721 57.1584 264.918 57.3061 265.016 57.5522C265.115 57.7984 265.262 58.0445 265.311 58.3399H264.376C264.278 58.0445 264.081 57.7984 263.884 57.6507C263.638 57.503 263.391 57.4538 263.047 57.4538C262.751 57.4538 262.456 57.503 262.21 57.6507C261.964 57.7491 261.767 57.9461 261.668 58.143C261.521 58.3399 261.422 58.5369 261.373 58.8322C261.324 59.0784 261.274 59.3738 261.274 59.62C261.274 59.8661 261.274 60.1615 261.373 60.4077C261.422 60.6538 261.57 60.9 261.668 61.0477C261.767 61.1954 262.013 61.3923 262.21 61.4908C262.407 61.5892 262.702 61.6385 262.998 61.6385C263.145 61.6385 263.293 61.6385 263.441 61.6385C263.588 61.6385 263.736 61.54 263.834 61.4908C263.982 61.4415 264.081 61.3431 264.179 61.1954C264.278 61.0969 264.327 60.9492 264.376 60.7523H265.311C265.262 61.0477 265.164 61.2938 265.016 61.54C264.868 61.7369 264.671 61.9339 264.475 62.0816C264.278 62.2293 264.031 62.3277 263.785 62.377C263.539 62.4262 263.244 62.4754 262.948 62.4754H262.998Z" fill="black"/>
    <path d="M267.379 62.426V56.7151H268.315V59.1767H269.299L270.973 56.7151H272.007L270.087 59.4228L272.155 62.426H271.072L269.348 59.9644H268.265V62.426H267.33H267.379Z" fill="black"/>
    <path d="M276.192 56.6168C276.635 56.6168 277.029 56.666 277.373 56.8137C277.718 56.9614 277.964 57.1584 278.21 57.4045C278.456 57.6507 278.604 57.9953 278.703 58.3399C278.801 58.6846 278.85 59.0784 278.85 59.5215C278.85 59.9646 278.801 60.3584 278.703 60.7031C278.604 61.0477 278.407 61.3431 278.21 61.6385C277.964 61.8846 277.718 62.0816 277.373 62.2293C277.029 62.377 276.635 62.4262 276.192 62.4262C275.749 62.4262 275.355 62.377 275.01 62.2293C274.666 62.0816 274.419 61.8846 274.173 61.6385C273.927 61.3923 273.779 61.0969 273.681 60.7031C273.582 60.3584 273.533 59.9646 273.533 59.5215C273.533 59.0784 273.582 58.6846 273.681 58.3399C273.779 57.9953 273.976 57.6999 274.173 57.4045C274.419 57.1584 274.666 56.9614 275.01 56.8137C275.355 56.666 275.749 56.6168 276.241 56.6168H276.192ZM276.192 61.6385C276.487 61.6385 276.783 61.5892 276.979 61.4908C277.226 61.3923 277.373 61.2446 277.521 61.0477C277.669 60.8508 277.767 60.6538 277.866 60.4077C277.915 60.1615 277.964 59.8661 277.964 59.5707C277.964 59.2753 277.964 59.0292 277.866 58.7338C277.816 58.4876 277.669 58.2415 277.521 58.0445C277.373 57.8476 277.176 57.6999 276.979 57.6014C276.733 57.503 276.487 57.4538 276.192 57.4538C275.896 57.4538 275.601 57.503 275.404 57.6014C275.207 57.6999 275.01 57.8476 274.862 58.0445C274.715 58.2415 274.616 58.4384 274.518 58.7338C274.469 58.9799 274.419 59.2753 274.419 59.5707C274.419 59.8661 274.419 60.1615 274.518 60.4077C274.567 60.6538 274.715 60.9 274.862 61.0477C275.01 61.2446 275.207 61.3923 275.404 61.4908C275.65 61.5892 275.896 61.6385 276.192 61.6385Z" fill="black"/>
    <path d="M281.853 62.4262H280.967V56.7153H281.903V61.0969C281.903 61.0969 282.001 60.9 282.1 60.7523C282.198 60.6046 282.247 60.5554 282.296 60.4569L285.053 56.666H285.989V62.377H285.053V57.9953C285.053 57.9953 284.955 58.1922 284.857 58.2907C284.807 58.3892 284.709 58.4876 284.66 58.5369L281.853 62.3277V62.4262ZM283.527 55.2383C283.823 55.2383 284.069 55.1891 284.266 55.0414C284.463 54.9429 284.561 54.746 284.561 54.4506H285.398C285.398 54.9922 285.201 55.3368 284.906 55.5829C284.561 55.8291 284.118 55.9276 283.577 55.9276C283.035 55.9276 282.543 55.8291 282.247 55.5829C281.903 55.3368 281.755 54.9922 281.755 54.4506H282.592C282.592 54.746 282.69 54.9429 282.887 55.0414C283.084 55.1399 283.33 55.2383 283.626 55.2383H283.527Z" fill="black"/>
    <path d="M294.457 56.6168C294.9 56.6168 295.294 56.666 295.638 56.8137C295.983 56.9614 296.229 57.1584 296.475 57.4045C296.721 57.6507 296.869 57.9953 296.968 58.3399C297.066 58.6846 297.115 59.0784 297.115 59.5215C297.115 59.9646 297.066 60.3584 296.968 60.7031C296.869 61.0477 296.672 61.3431 296.475 61.6385C296.229 61.8846 295.983 62.0816 295.638 62.2293C295.294 62.377 294.9 62.4262 294.457 62.4262C294.014 62.4262 293.62 62.377 293.275 62.2293C292.931 62.0816 292.684 61.8846 292.438 61.6385C292.192 61.3923 292.044 61.0969 291.946 60.7031C291.848 60.3584 291.798 59.9646 291.798 59.5215C291.798 59.0784 291.848 58.6846 291.946 58.3399C292.044 57.9953 292.241 57.6999 292.438 57.4045C292.684 57.1584 292.931 56.9614 293.275 56.8137C293.62 56.666 294.014 56.6168 294.506 56.6168H294.457ZM294.457 61.6385C294.752 61.6385 295.048 61.5892 295.245 61.4908C295.491 61.3923 295.638 61.2446 295.786 61.0477C295.934 60.8508 296.032 60.6538 296.131 60.4077C296.18 60.1615 296.229 59.8661 296.229 59.5707C296.229 59.2753 296.229 59.0292 296.131 58.7338C296.081 58.4876 295.934 58.2415 295.786 58.0445C295.638 57.8476 295.441 57.6999 295.245 57.6014C294.998 57.503 294.752 57.4538 294.457 57.4538C294.161 57.4538 293.866 57.503 293.669 57.6014C293.472 57.6999 293.275 57.8476 293.128 58.0445C292.98 58.2415 292.881 58.4384 292.783 58.7338C292.734 58.9799 292.684 59.2753 292.684 59.5707C292.684 59.8661 292.684 60.1615 292.783 60.4077C292.832 60.6538 292.98 60.9 293.128 61.0477C293.275 61.2446 293.472 61.3923 293.669 61.4908C293.915 61.5892 294.161 61.6385 294.457 61.6385Z" fill="black"/>
    <path d="M300.02 57.9952C300.02 57.9952 300.266 57.6998 300.414 57.6014C300.562 57.5029 300.709 57.4044 300.906 57.3552C301.103 57.306 301.251 57.2075 301.448 57.2075C301.645 57.2075 301.792 57.2075 301.94 57.2075C302.334 57.2075 302.679 57.2567 302.974 57.4044C303.269 57.5521 303.516 57.6998 303.712 57.946C303.909 58.1921 304.057 58.4383 304.205 58.7829C304.303 59.0783 304.352 59.4722 304.352 59.8168C304.352 60.1614 304.303 60.5553 304.156 60.8999C304.008 61.2445 303.86 61.5399 303.663 61.7861C303.466 62.0322 303.171 62.2292 302.826 62.3769C302.482 62.5246 302.137 62.5738 301.694 62.5738C301.202 62.5738 300.808 62.4753 300.512 62.3276C300.168 62.1307 299.922 61.9338 299.725 61.6384C299.528 61.343 299.38 60.9984 299.282 60.6045C299.183 60.2107 299.134 59.8168 299.134 59.4229C299.134 59.3245 299.134 59.0783 299.134 58.7337C299.134 58.3891 299.134 58.0937 299.134 57.7983C299.134 57.5029 299.232 57.2075 299.282 56.9613C299.331 56.6659 299.429 56.469 299.577 56.2229C299.774 55.8782 300.02 55.6321 300.315 55.4351C300.611 55.2874 300.955 55.1397 301.349 55.0905C301.497 55.0905 301.743 55.0413 302.186 54.9428C302.629 54.8936 302.925 54.8444 303.072 54.7951C303.22 54.7951 303.368 54.7951 303.516 54.7459C303.663 54.7459 303.86 54.7459 304.008 54.6474V55.4844C304.008 55.4844 303.762 55.5336 303.614 55.5828C303.466 55.5828 303.269 55.6321 303.072 55.6321C302.925 55.6321 302.777 55.6321 302.629 55.6813H302.137C302.137 55.6813 301.743 55.7798 301.399 55.829C301.152 55.829 300.955 55.9275 300.808 56.0259C300.66 56.1244 300.512 56.2721 300.414 56.4198C300.266 56.6167 300.168 56.8629 300.118 57.1583C300.069 57.4537 300.02 57.6998 300.02 57.946V57.9952ZM301.743 61.6876C301.989 61.6876 302.235 61.6384 302.432 61.5399C302.629 61.4415 302.826 61.2938 302.974 61.1461C303.122 60.9984 303.22 60.7522 303.319 60.5553C303.417 60.3583 303.417 60.063 303.417 59.8168C303.417 59.5706 303.417 59.3245 303.319 59.1275C303.22 58.9306 303.122 58.7337 302.974 58.5368C302.826 58.3891 302.679 58.2414 302.482 58.1429C302.285 58.0444 302.039 57.9952 301.792 57.9952C301.546 57.9952 301.3 58.0444 301.103 58.1429C300.906 58.2414 300.709 58.3891 300.562 58.5368C300.414 58.6845 300.315 58.8814 300.217 59.1275C300.168 59.3245 300.118 59.5706 300.118 59.8168C300.118 60.063 300.118 60.3091 300.217 60.5553C300.266 60.8014 300.365 60.9984 300.512 61.1461C300.66 61.343 300.808 61.4415 301.005 61.5399C301.202 61.6384 301.448 61.6876 301.743 61.6876Z" fill="black"/>
    <path d="M306.863 59.7182C306.863 59.1766 306.913 58.6843 306.962 58.192C307.011 57.6997 306.962 57.2074 306.962 56.6658H310.95V62.3767H310.014V57.5027H307.848L307.749 59.7674C307.749 60.0628 307.749 60.3582 307.651 60.7521C307.602 61.0967 307.503 61.4413 307.356 61.7367C307.257 61.9336 307.06 62.1306 306.863 62.229C306.666 62.3767 306.42 62.426 306.125 62.426H305.78V61.589C306.076 61.589 306.322 61.4905 306.469 61.2444C306.568 61.0967 306.666 60.8998 306.716 60.6044C306.765 60.309 306.814 60.0136 306.814 59.7182H306.863Z" fill="black"/>
    <path d="M316.956 61.6877C316.956 61.6877 316.71 61.9831 316.513 62.0815C316.316 62.18 316.168 62.2785 316.02 62.3277C315.873 62.3769 315.676 62.4262 315.528 62.4262C315.38 62.4262 315.184 62.4262 315.036 62.4262C314.79 62.4262 314.494 62.4261 314.297 62.3277C314.051 62.2785 313.854 62.18 313.657 62.0323C313.46 61.8846 313.313 61.6877 313.214 61.4907C313.116 61.2938 313.067 61.0477 313.067 60.7523C313.067 60.4076 313.116 60.1615 313.263 59.9153C313.362 59.7184 313.559 59.5215 313.756 59.3738C313.953 59.2261 314.199 59.1276 314.445 59.0784C314.691 59.0291 314.987 58.9799 315.282 58.9799H316.956C316.956 58.4876 316.857 58.0937 316.66 57.8476C316.464 57.5522 316.119 57.4045 315.627 57.4045C315.331 57.4045 315.036 57.4045 314.839 57.5522C314.642 57.6999 314.445 57.7983 314.347 58.0445H313.362C313.362 57.7983 313.51 57.5522 313.657 57.3552C313.805 57.1583 314.002 57.0106 314.199 56.9122C314.396 56.8137 314.642 56.7152 314.888 56.666C315.134 56.6168 315.38 56.5675 315.627 56.5675C316.07 56.5675 316.414 56.6168 316.71 56.7645C317.005 56.9122 317.251 57.1091 317.399 57.306C317.596 57.5522 317.694 57.7983 317.793 58.143C317.842 58.4876 317.891 58.8322 317.891 59.2261V62.3277H317.104V61.5892L316.956 61.6877ZM315.824 59.8168C315.824 59.8168 315.43 59.8168 315.233 59.8168C314.987 59.8168 314.79 59.8169 314.593 59.8661C314.396 59.9153 314.199 60.0138 314.1 60.1122C313.953 60.2599 313.903 60.4076 313.903 60.6538C313.903 60.8015 313.903 60.9492 314.002 61.0476C314.051 61.1461 314.15 61.2446 314.248 61.343C314.347 61.4415 314.494 61.4907 314.642 61.54C314.79 61.54 314.937 61.5892 315.085 61.5892C315.627 61.5892 316.07 61.4415 316.365 61.1953C316.66 60.9492 316.857 60.5553 316.857 60.063V59.7676H315.824V59.8168Z" fill="black"/>
    <path d="M322.47 62.4754C322.027 62.4754 321.633 62.4262 321.288 62.2785C320.944 62.1308 320.697 61.9339 320.451 61.6877C320.205 61.4415 320.057 61.0969 319.959 60.7523C319.861 60.4077 319.811 60.0138 319.811 59.5707C319.811 59.1276 319.861 58.783 320.008 58.4384C320.156 58.0938 320.304 57.7491 320.501 57.503C320.697 57.2568 320.993 57.0107 321.337 56.863C321.682 56.7153 322.076 56.6168 322.568 56.6168C322.864 56.6168 323.11 56.6168 323.356 56.7153C323.602 56.7645 323.799 56.863 323.996 57.0107C324.193 57.1584 324.39 57.3061 324.488 57.5522C324.587 57.7984 324.735 58.0445 324.784 58.3399H323.848C323.75 58.0445 323.553 57.7984 323.356 57.6507C323.11 57.503 322.864 57.4538 322.519 57.4538C322.224 57.4538 321.928 57.503 321.682 57.6507C321.436 57.7491 321.239 57.9461 321.141 58.143C320.993 58.3399 320.894 58.5369 320.845 58.8322C320.796 59.0784 320.747 59.3738 320.747 59.62C320.747 59.8661 320.747 60.1615 320.845 60.4077C320.894 60.6538 321.042 60.9 321.141 61.0477C321.239 61.1954 321.485 61.3923 321.682 61.4908C321.879 61.5892 322.174 61.6385 322.47 61.6385C322.618 61.6385 322.765 61.6385 322.913 61.6385C323.061 61.6385 323.208 61.54 323.307 61.4908C323.454 61.4415 323.553 61.3431 323.651 61.1954C323.75 61.0969 323.799 60.9492 323.848 60.7523H324.784C324.735 61.0477 324.636 61.2938 324.488 61.54C324.341 61.7369 324.144 61.9339 323.947 62.0816C323.75 62.2293 323.504 62.3277 323.258 62.377C323.011 62.4262 322.716 62.4754 322.421 62.4754H322.47Z" fill="black"/>
    <path d="M331.036 56.7151V57.552H329.067V62.426H328.132V57.552H326.162V56.7151H330.987H331.036Z" fill="black"/>
    <path d="M333.547 62.426H332.661V56.715H333.596V61.0967C333.596 61.0967 333.695 60.8998 333.793 60.7521C333.892 60.6044 333.941 60.5551 333.99 60.4567L336.747 56.6658H337.683V62.3767H336.747V57.9951C336.747 57.9951 336.649 58.192 336.55 58.2905C336.501 58.3889 336.403 58.4874 336.353 58.5366L333.547 62.3275V62.426Z" fill="black"/>
    <path d="M221.2 8.911V14.3758H217.507V0H221.2V5.51399H223.169L226.27 0H230.455L226.172 6.89249L230.406 14.3758H226.123L223.218 8.911H221.15H221.2Z" fill="black"/>
    <path d="M237.84 0C238.677 0 239.465 0.0984641 240.154 0.24616C240.843 0.393856 241.434 0.689249 241.976 1.0831C242.468 1.47696 242.862 2.01851 243.157 2.65853C243.452 3.29855 243.551 4.13549 243.551 5.0709C243.551 6.05554 243.354 6.89249 242.96 7.63097C242.566 8.32021 242.074 8.911 241.434 9.35409C240.942 9.69871 240.351 9.94487 239.711 10.1418C239.071 10.2895 238.382 10.388 237.692 10.388H235.477V14.425H231.784V0H237.791H237.84ZM237.692 7.04018C238.382 7.04018 238.923 6.89249 239.317 6.54786C239.711 6.20324 239.908 5.76015 239.908 5.16936C239.908 4.57858 239.76 4.08626 239.415 3.8401C239.071 3.54471 238.48 3.39701 237.692 3.39701H235.526V7.04018H237.742H237.692Z" fill="black"/>
    <path d="M256.204 0V3.39701H249.065V5.61245H254.973V8.86177H249.065V10.9787H256.204V14.3758H245.372V0H256.204Z" fill="black"/>
    <path d="M260.634 14.3758H256.696L262.456 0H266.198L271.909 14.3758H267.97L267.281 12.3572H261.422L260.684 14.3758H260.634ZM266.05 9.0587L264.327 4.13549L262.505 9.0587H266.05Z" fill="black"/>
    <path d="M270.481 3.39701V0H282.69V3.39701H278.407V14.3758H274.715V3.39701H270.432H270.481Z" fill="black"/>
    <path d="M287.81 8.02482L294.161 0H297.066V14.3758H293.374V6.4494L287.023 14.3265H284.167V0H287.86V8.02482H287.81Z" fill="black"/>
    <path d="M299.725 14.3758V0H306.863C307.454 0 308.045 0.049232 308.586 0.196928C309.128 0.344624 309.571 0.541552 309.965 0.836945C310.359 1.13234 310.654 1.52619 310.9 2.01851C311.147 2.51083 311.245 3.10162 311.245 3.8401C311.245 4.33242 311.147 4.87397 310.9 5.31706C310.654 5.76015 310.359 6.154 309.916 6.4494C310.506 6.69556 310.95 7.13865 311.294 7.6802C311.639 8.22175 311.836 8.911 311.836 9.79718C311.836 10.5849 311.688 11.2741 311.393 11.8157C311.097 12.3572 310.753 12.8496 310.359 13.1942C309.768 13.6865 309.03 14.0311 308.242 14.1788C307.454 14.3265 306.617 14.3758 305.731 14.3758H299.774H299.725ZM305.977 5.61245C306.568 5.61245 306.962 5.51399 307.208 5.26783C307.454 5.02167 307.553 4.77551 307.553 4.43088C307.553 4.08626 307.454 3.79087 307.208 3.64317C306.962 3.49547 306.617 3.39701 306.125 3.39701H303.368V5.61245H305.928H305.977ZM303.417 11.028H306.322C306.962 11.028 307.454 10.9295 307.7 10.6834C307.996 10.4372 308.143 10.1418 308.143 9.74794C308.143 8.96023 307.602 8.56637 306.469 8.56637H303.417V10.9787V11.028Z" fill="black"/>
    <path d="M317.448 5.56322H322.667V0H326.359V14.3758H322.667V8.96023H317.448V14.3758H313.756V0H317.448V5.56322Z" fill="black"/>
    <path d="M329.018 14.3758V0H332.71V4.9232H334.581C335.221 4.9232 335.861 4.97244 336.55 5.12013C337.239 5.26783 337.781 5.51399 338.323 5.85861C338.864 6.20324 339.258 6.64633 339.603 7.23711C339.947 7.82789 340.095 8.56637 340.095 9.45255C340.095 10.4372 339.898 11.2249 339.504 11.8157C339.11 12.4065 338.667 12.948 338.076 13.2927C337.486 13.6865 336.846 13.9327 336.107 14.0804C335.369 14.2281 334.63 14.2773 333.892 14.2773H329.067L329.018 14.3758ZM332.71 10.9787H334.039C334.384 10.9787 334.729 10.9787 335.024 10.9295C335.319 10.9295 335.566 10.7818 335.812 10.6834C336.009 10.5849 336.206 10.4372 336.304 10.2403C336.402 10.0433 336.501 9.79718 336.501 9.50178C336.501 9.25562 336.452 9.00946 336.304 8.81254C336.156 8.61561 336.009 8.51714 335.812 8.41868C335.615 8.32022 335.369 8.27098 335.122 8.22175C334.827 8.22175 334.581 8.22175 334.286 8.22175H332.809V11.028L332.71 10.9787ZM341.72 0H345.412V14.3758H341.72V0Z" fill="black"/>
    <path d="M358.902 0V3.39701H351.763V5.61245H357.671V8.86177H351.763V10.9787H358.902V14.3758H348.07V0H358.902Z" fill="black"/>
    <path d="M221.2 27.7176L227.551 19.6928H230.455V34.0686H226.763V26.1915L220.412 34.0686H217.556V19.6928H221.249V27.7176H221.2Z" fill="black"/>
    <path d="M238.381 25.256H243.6V19.6928H247.292V34.0686H243.6V28.6531H238.381V34.0686H234.689V19.6928H238.381V25.256Z" fill="black"/>
    <path d="M265.41 37.4655H261.718V34.0685H254.037V37.4655H250.345V30.6715C250.936 30.6715 251.379 30.4745 251.674 30.1299C251.97 29.7853 252.167 29.3422 252.265 28.8499C252.462 28.0129 252.56 27.2252 252.61 26.3883C252.659 25.6006 252.708 24.7636 252.757 23.9759C252.757 23.2374 252.757 22.499 252.807 21.7605C252.807 21.022 252.807 20.3327 252.807 19.5943H263.588V30.573H265.311V37.367L265.41 37.4655ZM256.154 26.9298C256.154 26.9298 256.154 27.4714 256.105 27.7668C256.105 28.1114 256.105 28.4068 256.007 28.7514C256.007 29.0961 255.908 29.4407 255.81 29.7853C255.711 30.1299 255.613 30.4253 255.514 30.6715H259.994V23.0897H256.204C256.204 23.7298 256.204 24.2221 256.204 24.6652C256.204 25.059 256.204 25.4036 256.204 25.699C256.204 25.9944 256.204 26.1914 256.204 26.3883C256.204 26.5852 256.204 26.7329 256.204 26.9298H256.154Z" fill="black"/>
    <path d="M276.93 19.6927H280.82L276.881 28.8007C276.536 29.6376 276.192 30.3269 275.847 30.9669C275.502 31.6069 275.109 32.1484 274.616 32.5915C274.124 33.0346 273.582 33.3792 272.893 33.6254C272.204 33.8716 271.367 33.97 270.333 33.97H269.496V30.4745H270.185C270.776 30.4745 271.269 30.3761 271.662 30.2284C272.056 30.0807 272.352 29.7853 272.647 29.3914L267.232 19.5943H271.515L274.567 25.9452L277.029 19.5943L276.93 19.6927Z" fill="black"/>
    <path d="M286.432 26.8316C286.432 27.2747 286.481 27.767 286.629 28.2101C286.777 28.6532 286.924 29.0962 287.22 29.4409C287.466 29.8347 287.81 30.1301 288.254 30.3763C288.697 30.6224 289.238 30.7209 289.829 30.7209C290.617 30.7209 291.257 30.524 291.749 30.1794C292.241 29.8347 292.537 29.3424 292.684 28.7024H296.229C296.18 29.5886 295.934 30.4255 295.54 31.1148C295.146 31.804 294.654 32.3948 294.112 32.8379C293.521 33.281 292.832 33.6256 292.094 33.8718C291.355 34.1179 290.567 34.2164 289.731 34.2164C288.598 34.2164 287.614 34.0687 286.727 33.7241C285.841 33.3794 285.103 32.8871 284.463 32.2471C283.872 31.6071 283.38 30.8194 283.035 29.9332C282.69 28.9978 282.543 28.0131 282.543 26.8808C282.543 25.7485 282.69 24.7638 283.035 23.8284C283.38 22.9422 283.872 22.1545 284.463 21.5145C285.103 20.8745 285.841 20.3822 286.727 20.0376C287.614 19.6929 288.598 19.496 289.632 19.496C290.469 19.496 291.257 19.5945 291.995 19.8406C292.734 20.0868 293.374 20.4314 293.964 20.8745C294.555 21.3176 294.998 21.9084 295.343 22.5976C295.688 23.2869 295.934 24.0746 295.983 25.01H292.488C292.34 24.37 292.044 23.8777 291.552 23.4838C291.109 23.1392 290.469 22.9422 289.681 22.9422C289.041 22.9422 288.549 23.0407 288.106 23.2869C287.663 23.533 287.318 23.8284 287.072 24.173C286.826 24.5177 286.629 24.9608 286.481 25.4038C286.383 25.8469 286.284 26.3393 286.284 26.8316H286.432Z" fill="black"/>
    <path d="M298.346 23.0898V19.6928H310.556V23.0898H306.272V34.0686H302.58V23.0898H298.297H298.346Z" fill="black"/>
    <path d="M319.664 19.6928C320.501 19.6928 321.288 19.7913 321.978 19.939C322.667 20.0867 323.258 20.3821 323.799 20.7759C324.291 21.1698 324.685 21.7113 324.981 22.3514C325.276 22.9914 325.375 23.8283 325.375 24.7637C325.375 25.7484 325.178 26.5853 324.784 27.3238C324.39 28.013 323.898 28.6038 323.258 29.0469C322.765 29.3915 322.174 29.6377 321.534 29.8346C320.894 29.9823 320.205 30.0808 319.516 30.0808H317.3V34.1178H313.608V19.7421H319.614L319.664 19.6928ZM319.516 26.733C320.205 26.733 320.747 26.5853 321.141 26.2407C321.534 25.8961 321.731 25.453 321.731 24.8622C321.731 24.2714 321.584 23.7791 321.239 23.5329C320.894 23.2375 320.304 23.0898 319.516 23.0898H317.35V26.733H319.565H319.516Z" fill="black"/>
    <path d="M332.513 27.7176L338.864 19.6928H341.769V34.0686H338.076V26.1915L331.725 34.0686H328.87V19.6928H332.562V27.7176H332.513Z" fill="black"/>
    <path d="M349.744 27.7176L356.095 19.6928H359V34.0686H355.308V26.1915L348.957 34.0686H346.101V19.6928H349.794V27.7176H349.744Z" fill="black"/>
    <path d="M23.5821 0H0V46.2781H23.5821V0Z" fill="#B42024"/>
    <path d="M200.473 36.0872L176.398 52.7768V62.4755H201.408V36.0872H200.473Z" fill="#B42024"/>
    <path d="M177.334 28.7023L201.408 12.0126V0H176.398V28.7023H177.334Z" fill="#B42024"/>
    <path d="M46.2781 0V47.2135L61.5401 62.4755H69.4664V0H46.2781Z" fill="#B42024"/>
    <path d="M116.68 0H92.1624V62.4755H116.04L95.8548 32.3947L116.68 0Z" fill="#B42024"/>
    <path d="M142.133 0L120.372 32.3947L141.444 62.4755H153.752V0H142.133Z" fill="#B42024"/>
</svg>
