<svg width="202" height="170" viewBox="0 0 202 170" fill="none" xmlns="http://www.w3.org/2000/svg">
    <path d="M5.2453 150.028V143.035H6.5741V150.028H7.62318V153.665H6.3643V151.147H0V143.035H1.3288V150.028H5.2453Z" fill="white"/>
    <path d="M11.12 147.65C11.12 148 11.1899 148.35 11.3298 148.63C11.4697 148.909 11.6096 149.189 11.8194 149.399C12.0292 149.609 12.3089 149.818 12.5887 149.958C12.8684 150.098 13.2181 150.168 13.6378 150.168C13.8476 150.168 14.0574 150.168 14.2672 150.168C14.477 150.168 14.6868 150.098 14.8267 149.958C15.0365 149.888 15.1764 149.749 15.3163 149.609C15.4561 149.469 15.596 149.259 15.6659 149.049H16.9948C16.9248 149.469 16.715 149.749 16.5052 150.098C16.2954 150.378 16.0156 150.658 15.7359 150.798C15.4561 151.007 15.1065 151.147 14.7568 151.217C14.4071 151.287 13.9875 151.357 13.6378 151.357C13.0083 151.357 12.4488 151.287 11.9593 151.077C11.4697 150.868 11.12 150.588 10.7703 150.238C10.4906 149.888 10.2108 149.469 10.0709 148.909C9.93107 148.42 9.86115 147.86 9.86115 147.231C9.86115 146.601 9.93109 146.042 10.1409 145.552C10.3507 145.063 10.5605 144.643 10.8403 144.223C11.19 143.874 11.5397 143.594 12.0292 143.384C12.5188 143.174 13.0083 143.104 13.7077 143.104C14.4071 143.104 14.8966 143.244 15.3862 143.524C15.8758 143.804 16.2255 144.084 16.5052 144.503C16.785 144.923 16.9948 145.342 17.1346 145.832C17.2745 146.322 17.2745 146.741 17.2745 147.161C17.2745 147.231 17.2745 147.371 17.2745 147.441C17.2745 147.511 17.2745 147.65 17.2745 147.72H11.2599L11.12 147.65ZM15.8058 146.531C15.8058 145.832 15.596 145.273 15.1764 144.853C14.7568 144.433 14.1973 144.223 13.4979 144.223C13.1482 144.223 12.7985 144.223 12.5188 144.433C12.239 144.643 11.9593 144.713 11.8194 144.923C11.6096 145.133 11.4697 145.412 11.3298 145.692C11.1899 145.972 11.12 146.252 11.12 146.601H15.8058V146.531Z" fill="white"/>
    <path d="M20.072 151.217V143.104H21.4008V146.671H25.4572V143.104H26.786V151.217H25.4572V147.79H21.4008V151.217H20.072Z" fill="white"/>
    <path d="M36.0177 143.104V144.293H33.2202V151.217H31.8914V144.293H29.0939V143.104H35.9478H36.0177Z" fill="white"/>
    <path d="M39.5845 154.155H38.2557V143.105H39.5146V144.363C39.8643 143.944 40.214 143.594 40.7035 143.384C41.1931 143.175 41.6827 143.035 42.2422 143.035C42.8716 143.035 43.4311 143.175 43.8507 143.384C44.2703 143.594 44.62 143.874 44.9697 144.224C45.2495 144.573 45.4593 145.063 45.5992 145.552C45.739 146.042 45.809 146.601 45.809 147.161C45.809 147.72 45.739 148.28 45.5992 148.839C45.4593 149.329 45.2495 149.749 44.9697 150.168C44.69 150.518 44.2703 150.798 43.8507 151.008C43.4311 151.217 42.8716 151.357 42.2422 151.357C41.6127 151.357 41.1232 151.287 40.7035 151.077C40.2839 150.868 39.9342 150.658 39.6545 150.308V154.225L39.5845 154.155ZM42.1023 150.168C42.5219 150.168 42.9415 150.098 43.2213 149.958C43.501 149.819 43.7808 149.609 43.9906 149.329C44.2004 149.049 44.3403 148.77 44.4102 148.42C44.4801 148.07 44.5501 147.651 44.5501 147.231C44.5501 146.811 44.5501 146.462 44.4102 146.042C44.3403 145.692 44.2004 145.343 43.9906 145.133C43.7808 144.853 43.571 144.643 43.2213 144.503C42.9415 144.363 42.5219 144.294 42.1023 144.294C41.5428 144.294 41.1231 144.433 40.7735 144.713C40.4238 144.993 40.0741 145.343 39.9342 145.762C39.7943 145.972 39.7244 146.252 39.7244 146.462C39.7244 146.671 39.7244 146.951 39.7244 147.231C39.7244 147.511 39.7244 147.79 39.7244 148.07C39.7244 148.35 39.8643 148.56 39.9342 148.839C40.144 149.259 40.4238 149.539 40.7735 149.819C41.1231 150.098 41.6127 150.238 42.1722 150.238L42.1023 150.168Z" fill="white"/>
    <path d="M55.3205 154.155H53.9917V143.105H55.2506V144.363C55.6003 143.944 55.9499 143.594 56.4395 143.384C56.9291 143.175 57.4186 143.035 57.9781 143.035C58.6076 143.035 59.1671 143.175 59.5867 143.384C60.0063 143.594 60.356 143.874 60.7057 144.224C60.9854 144.573 61.1952 145.063 61.3351 145.552C61.475 146.042 61.5449 146.601 61.5449 147.161C61.5449 147.72 61.475 148.28 61.3351 148.839C61.1952 149.329 60.9854 149.749 60.7057 150.168C60.4259 150.518 60.0063 150.798 59.5867 151.008C59.1671 151.217 58.6076 151.357 57.9781 151.357C57.3487 151.357 56.8591 151.287 56.4395 151.077C56.0199 150.868 55.6702 150.658 55.3904 150.308V154.225L55.3205 154.155ZM57.8382 150.168C58.2579 150.168 58.6775 150.098 58.9572 149.958C59.237 149.819 59.5168 149.609 59.7266 149.329C59.9364 149.049 60.0762 148.77 60.1462 148.42C60.2161 148.07 60.286 147.651 60.286 147.231C60.286 146.811 60.286 146.462 60.1462 146.042C60.0762 145.692 59.9364 145.343 59.7266 145.133C59.5168 144.853 59.3069 144.643 58.9572 144.503C58.6775 144.363 58.2579 144.294 57.8382 144.294C57.2788 144.294 56.8591 144.433 56.5094 144.713C56.1597 144.993 55.8101 145.343 55.6702 145.762C55.5303 145.972 55.4604 146.252 55.4604 146.462C55.4604 146.671 55.4604 146.951 55.4604 147.231C55.4604 147.511 55.4604 147.79 55.4604 148.07C55.4604 148.35 55.6002 148.56 55.6702 148.839C55.88 149.259 56.1597 149.539 56.5094 149.819C56.8591 150.098 57.3487 150.238 57.9082 150.238L57.8382 150.168Z" fill="white"/>
    <path d="M69.7276 150.168C69.7276 150.168 69.3779 150.588 69.0981 150.728C68.8184 150.867 68.6086 151.007 68.3987 151.077C68.1889 151.147 67.9092 151.217 67.6994 151.217C67.4896 151.217 67.2098 151.217 67 151.217C66.6503 151.217 66.2307 151.217 65.9509 151.077C65.6013 151.007 65.3215 150.867 65.0418 150.658C64.762 150.448 64.5522 150.168 64.4123 149.888C64.2724 149.609 64.2025 149.259 64.2025 148.839C64.2025 148.35 64.2725 148 64.4823 147.65C64.6221 147.371 64.9019 147.091 65.1816 146.881C65.4614 146.671 65.8111 146.531 66.1608 146.461C66.5104 146.391 66.9301 146.321 67.3497 146.321H69.7276C69.7276 145.622 69.5877 145.063 69.3079 144.713C69.0282 144.293 68.5386 144.083 67.8393 144.083C67.4196 144.083 67 144.083 66.7203 144.293C66.4405 144.503 66.1607 144.643 66.0209 144.993H64.6221C64.6221 144.643 64.8319 144.293 65.0418 144.014C65.2516 143.734 65.5313 143.524 65.8111 143.384C66.0908 143.244 66.4405 143.104 66.7902 143.034C67.1399 142.964 67.4896 142.895 67.8393 142.895C68.4687 142.895 68.9582 142.964 69.3779 143.174C69.7975 143.384 70.1472 143.664 70.357 143.944C70.6368 144.293 70.7766 144.643 70.9165 145.133C70.9864 145.622 71.0564 146.112 71.0564 146.671V151.077H69.9374V150.028L69.7276 150.168ZM68.119 147.51C68.119 147.51 67.5595 147.51 67.2797 147.51C66.9301 147.51 66.6503 147.51 66.3706 147.58C66.0908 147.65 65.8111 147.79 65.6712 147.93C65.4614 148.14 65.3914 148.35 65.3914 148.699C65.3914 148.909 65.3914 149.119 65.5313 149.259C65.6013 149.399 65.7411 149.539 65.881 149.678C66.0209 149.818 66.2307 149.888 66.4405 149.958C66.6503 149.958 66.8601 150.028 67.0699 150.028C67.8393 150.028 68.4687 149.818 68.8883 149.469C69.3079 149.119 69.5877 148.559 69.5877 147.86V147.44H68.119V147.51Z" fill="white"/>
    <path d="M78.8893 146.881C79.4488 147.021 79.7985 147.3 80.0083 147.65C80.2182 148 80.2881 148.419 80.2881 148.909C80.2881 149.329 80.1482 149.678 80.0083 150.028C79.8685 150.378 79.5887 150.588 79.239 150.797C78.9593 151.007 78.6096 151.147 78.19 151.217C77.7704 151.287 77.4207 151.357 77.001 151.357C76.5814 151.357 76.2317 151.357 75.8121 151.217C75.3925 151.147 75.0428 151.007 74.763 150.867C74.4134 150.657 74.2035 150.448 73.9937 150.168C73.7839 149.888 73.644 149.538 73.644 149.049H74.9029C74.9029 149.049 75.0428 149.469 75.1827 149.608C75.3225 149.748 75.5323 149.888 75.7422 149.958C75.952 150.028 76.1618 150.098 76.3716 150.168C76.5814 150.168 76.7912 150.168 77.001 150.168C77.2108 150.168 77.4207 150.168 77.7004 150.168C77.9102 150.168 78.12 150.098 78.3299 149.958C78.5397 149.888 78.6795 149.748 78.8194 149.538C78.9593 149.399 79.0292 149.189 79.0292 148.909C79.0292 148.699 79.0292 148.489 78.8893 148.35C78.8194 148.14 78.6796 148.07 78.4697 147.93C78.3299 147.86 78.1201 147.79 77.8403 147.79C77.5606 147.79 77.4207 147.79 77.2109 147.79H75.7422V146.601H76.9311C76.9311 146.601 77.3507 146.601 77.5605 146.601C77.7704 146.601 77.9802 146.531 78.12 146.391C78.2599 146.321 78.3998 146.181 78.5397 146.042C78.6096 145.902 78.6795 145.692 78.6795 145.412C78.6795 145.202 78.6795 144.993 78.5397 144.853C78.3998 144.713 78.3299 144.573 78.19 144.503C78.0501 144.433 77.8403 144.363 77.6305 144.293C77.4207 144.293 77.2109 144.293 77.071 144.293C76.8612 144.293 76.7213 144.293 76.5115 144.293C76.3017 144.293 76.0919 144.363 75.952 144.433C75.8121 144.503 75.6023 144.643 75.5324 144.713C75.3925 144.853 75.3226 144.993 75.3226 145.202H74.0637C74.0637 144.783 74.2036 144.433 74.3434 144.153C74.5532 143.874 74.763 143.664 75.0428 143.454C75.3225 143.314 75.6722 143.174 76.0219 143.104C76.3716 143.034 76.7213 142.964 77.1409 142.964C77.5605 142.964 77.8403 142.964 78.19 143.104C78.5397 143.174 78.8894 143.314 79.1691 143.454C79.4489 143.594 79.6587 143.874 79.8685 144.153C80.0783 144.433 80.1482 144.783 80.1482 145.202C80.1482 145.552 80.0783 145.902 79.8685 146.181C79.7286 146.461 79.4489 146.671 79.0992 146.881H78.8893Z" fill="white"/>
    <path d="M83.1556 143.104H86.3027C86.8622 143.104 87.2819 143.104 87.6315 143.244C87.9812 143.244 88.3309 143.454 88.5407 143.594C88.7506 143.734 88.9603 143.944 89.1002 144.223C89.2401 144.503 89.3101 144.783 89.3101 145.133C89.3101 145.972 88.9604 146.531 88.1911 146.881C88.7506 147.021 89.1702 147.231 89.38 147.58C89.6597 147.93 89.7297 148.35 89.7297 148.839C89.7297 149.259 89.6597 149.609 89.5199 149.888C89.38 150.168 89.1702 150.378 88.9604 150.588C88.7506 150.798 88.4009 150.937 88.0512 151.077C87.7015 151.217 87.2819 151.217 86.8622 151.217H83.0856V143.104H83.1556ZM84.4844 144.293V146.601H85.6034C85.6034 146.601 86.0929 146.601 86.3727 146.601C86.6524 146.601 86.8622 146.601 87.0721 146.461C87.3518 146.392 87.5616 146.252 87.7015 146.042C87.9113 145.832 87.9812 145.622 87.9812 145.412C87.9812 145.133 87.9812 144.923 87.7714 144.783C87.5616 144.643 87.4917 144.573 87.2819 144.503C87.0721 144.433 86.9322 144.433 86.6524 144.363C86.4426 144.363 86.2328 144.363 86.023 144.363H84.3445L84.4844 144.293ZM84.4844 150.098H86.6524C86.6524 150.098 87.142 150.098 87.3518 150.098C87.5616 150.098 87.7714 150.028 87.9113 149.888C88.0512 149.818 88.1911 149.679 88.3309 149.539C88.4009 149.399 88.4708 149.189 88.4708 148.979C88.4708 148.699 88.4708 148.42 88.261 148.28C88.0512 148.14 87.9113 148 87.7015 147.86C87.4917 147.86 87.2819 147.79 87.0021 147.72C86.7224 147.72 86.4426 147.72 86.1629 147.72H84.4844V150.098Z" fill="white"/>
    <path d="M93.9958 151.217H92.7369V143.105H94.0658V149.329C94.0658 149.329 94.2056 149.049 94.3455 148.839C94.4854 148.63 94.5553 148.56 94.6253 148.42L98.5418 143.035H99.8706V151.147H98.5418V144.923C98.5418 144.923 98.4019 145.203 98.262 145.343C98.1921 145.482 98.0522 145.622 97.9822 145.692L93.9958 151.077V151.217Z" fill="white"/>
    <path d="M109.032 143.104V144.293H106.235V151.217H104.906V144.293H102.109V143.104H108.962H109.032Z" fill="white"/>
    <path d="M112.599 151.217H111.34V143.105H112.669V149.329C112.669 149.329 112.809 149.049 112.949 148.839C113.089 148.63 113.159 148.56 113.229 148.42L117.145 143.035H118.474V151.147H117.145V144.923C117.145 144.923 117.005 145.203 116.865 145.343C116.795 145.482 116.656 145.622 116.586 145.692L112.599 151.077V151.217Z" fill="white"/>
    <path d="M127.846 151.217H126.517V148.21H124.628L122.67 151.217H121.132L123.23 148C122.67 147.86 122.181 147.581 121.831 147.161C121.481 146.741 121.341 146.322 121.271 145.692C121.271 145.133 121.341 144.713 121.551 144.363C121.761 144.014 121.971 143.734 122.251 143.524C122.53 143.314 122.88 143.175 123.23 143.105C123.579 143.105 123.999 143.035 124.419 143.035H127.706V151.147L127.846 151.217ZM126.517 144.294H124.768C124.768 144.294 124.279 144.294 123.999 144.294C123.719 144.294 123.509 144.363 123.3 144.503C123.09 144.573 123.02 144.783 122.88 144.923C122.74 145.133 122.74 145.343 122.67 145.622C122.67 145.902 122.74 146.112 122.88 146.322C123.02 146.532 123.16 146.671 123.439 146.741C123.719 146.881 124.069 146.951 124.419 147.021C124.768 147.091 125.188 147.021 125.538 147.021H126.517V144.224V144.294Z" fill="white"/>
    <path d="M8.88204 169.681H7.55321V160.029H1.67847V169.681H0.34967V158.771H8.88204V169.681Z" fill="white"/>
    <path d="M13.428 166.114C13.428 166.463 13.498 166.813 13.6378 167.093C13.7777 167.373 13.9176 167.652 14.1274 167.862C14.3372 168.072 14.617 168.282 14.8967 168.422C15.1765 168.562 15.5261 168.632 15.9458 168.632C16.1556 168.632 16.3654 168.632 16.5752 168.632C16.785 168.632 16.9948 168.562 17.1347 168.422C17.3445 168.352 17.4844 168.212 17.6243 168.072C17.7641 167.932 17.904 167.722 17.9739 167.513H19.3027C19.2328 167.932 19.023 168.212 18.8132 168.562C18.6034 168.841 18.3236 169.121 18.0439 169.261C17.7641 169.471 17.4144 169.611 17.0648 169.681C16.7151 169.751 16.2954 169.82 15.9458 169.82C15.3163 169.82 14.7568 169.751 14.2673 169.541C13.7777 169.331 13.428 169.051 13.0783 168.701C12.7986 168.352 12.5188 167.932 12.379 167.373C12.2391 166.883 12.1691 166.324 12.1691 165.694C12.1691 165.065 12.2391 164.505 12.4489 164.016C12.6587 163.526 12.8685 163.106 13.1483 162.687C13.498 162.337 13.8476 162.057 14.3372 161.848C14.8268 161.638 15.3163 161.568 16.0157 161.568C16.7151 161.568 17.2046 161.708 17.6942 161.987C18.1837 162.267 18.5334 162.547 18.8132 162.967C19.0929 163.386 19.3027 163.806 19.4426 164.295C19.5825 164.785 19.5825 165.205 19.5825 165.624C19.5825 165.694 19.5825 165.834 19.5825 165.904C19.5825 165.974 19.5825 166.114 19.5825 166.184H13.5679L13.428 166.114ZM18.1138 164.995C18.1138 164.295 17.904 163.736 17.4844 163.316C17.0648 162.897 16.5052 162.687 15.8059 162.687C15.4562 162.687 15.1065 162.687 14.8268 162.897C14.547 163.106 14.2673 163.176 14.1274 163.386C13.9176 163.596 13.7777 163.876 13.6378 164.156C13.498 164.435 13.428 164.715 13.428 165.065H18.1138V164.995Z" fill="white"/>
    <path d="M22.38 169.681V161.568H23.7088V165.135H27.7652V161.568H29.094V169.681H27.7652V166.254H23.7088V169.681H22.38Z" fill="white"/>
    <path d="M37.0668 165.344C37.6263 165.484 37.976 165.764 38.1858 166.114C38.3956 166.463 38.4656 166.883 38.4656 167.372C38.4656 167.792 38.3257 168.142 38.1858 168.491C38.046 168.841 37.7662 169.051 37.4165 169.261C37.1368 169.471 36.7871 169.61 36.3675 169.68C35.9478 169.75 35.5981 169.82 35.1785 169.82C34.7589 169.82 34.4092 169.82 33.9896 169.68C33.57 169.61 33.2203 169.471 32.9405 169.331C32.5908 169.121 32.381 168.911 32.1712 168.631C31.9614 168.352 31.8215 168.002 31.8215 167.512H33.0804C33.0804 167.512 33.2203 167.932 33.3602 168.072C33.5 168.212 33.7098 168.352 33.9196 168.421C34.1295 168.491 34.3393 168.561 34.5491 168.631C34.7589 168.631 34.9687 168.631 35.1785 168.631C35.3883 168.631 35.5982 168.631 35.8779 168.631C36.0877 168.631 36.2975 168.561 36.5074 168.421C36.7172 168.352 36.857 168.212 36.9969 168.002C37.1368 167.862 37.2067 167.652 37.2067 167.372C37.2067 167.163 37.2067 166.953 37.0668 166.813C36.9969 166.603 36.857 166.533 36.6472 166.393C36.5073 166.323 36.2975 166.253 36.0178 166.253C35.738 166.253 35.5982 166.253 35.3884 166.253H33.9196V165.064H35.1086C35.1086 165.064 35.5282 165.064 35.738 165.064C35.9478 165.064 36.1576 164.995 36.2975 164.855C36.4374 164.785 36.5773 164.645 36.7172 164.505C36.7871 164.365 36.857 164.155 36.857 163.876C36.857 163.666 36.857 163.456 36.7172 163.316C36.5773 163.176 36.5073 163.036 36.3675 162.966C36.2276 162.896 36.0178 162.826 35.808 162.757C35.5981 162.757 35.3884 162.757 35.2485 162.757C35.0387 162.757 34.8988 162.757 34.689 162.757C34.4792 162.757 34.2694 162.826 34.1295 162.896C33.9896 162.966 33.7798 163.106 33.7098 163.176C33.57 163.316 33.5 163.456 33.5 163.666H32.2412C32.2412 163.246 32.381 162.896 32.5209 162.617C32.7307 162.337 32.9405 162.127 33.2203 161.917C33.5 161.777 33.8497 161.638 34.1994 161.568C34.5491 161.498 34.8988 161.428 35.3184 161.428C35.738 161.428 36.0178 161.428 36.3675 161.568C36.7172 161.638 37.0668 161.777 37.3466 161.917C37.6263 162.057 37.8361 162.337 38.046 162.617C38.2558 162.896 38.3257 163.246 38.3257 163.666C38.3257 164.015 38.2558 164.365 38.046 164.645C37.9061 164.925 37.6263 165.134 37.2766 165.344H37.0668Z" fill="white"/>
    <path d="M42.312 166.114C42.312 166.463 42.382 166.813 42.5218 167.093C42.6617 167.373 42.8016 167.652 43.0114 167.862C43.2212 168.072 43.501 168.282 43.7807 168.422C44.0605 168.562 44.4102 168.632 44.8298 168.632C45.0396 168.632 45.2494 168.632 45.4592 168.632C45.669 168.632 45.8788 168.562 46.0187 168.422C46.2285 168.352 46.3684 168.212 46.5083 168.072C46.6482 167.932 46.788 167.722 46.858 167.513H48.1868C48.1168 167.932 47.907 168.212 47.6972 168.562C47.4874 168.841 47.2077 169.121 46.9279 169.261C46.6482 169.471 46.2985 169.611 45.9488 169.681C45.5991 169.751 45.1795 169.82 44.8298 169.82C44.2004 169.82 43.6408 169.751 43.1513 169.541C42.6617 169.331 42.312 169.051 41.9624 168.701C41.6826 168.352 41.4029 167.932 41.263 167.373C41.1231 166.883 41.0532 166.324 41.0532 165.694C41.0532 165.065 41.1231 164.505 41.3329 164.016C41.5427 163.526 41.7525 163.106 42.0323 162.687C42.382 162.337 42.7317 162.057 43.2212 161.848C43.7108 161.638 44.2003 161.568 44.8997 161.568C45.5991 161.568 46.0887 161.708 46.5782 161.987C47.0678 162.267 47.4175 162.547 47.6972 162.967C47.977 163.386 48.1868 163.806 48.3267 164.295C48.4665 164.785 48.4665 165.205 48.4665 165.624C48.4665 165.694 48.4665 165.834 48.4665 165.904C48.4665 165.974 48.4665 166.114 48.4665 166.184H42.4519L42.312 166.114ZM46.9979 164.995C46.9979 164.295 46.788 163.736 46.3684 163.316C45.9488 162.897 45.3893 162.687 44.6899 162.687C44.3402 162.687 43.9905 162.687 43.7108 162.897C43.431 163.106 43.1513 163.176 43.0114 163.386C42.8016 163.596 42.6617 163.876 42.5218 164.156C42.382 164.435 42.312 164.715 42.312 165.065H46.9979V164.995Z" fill="white"/>
    <path d="M51.2641 169.681V161.568H52.5929V165.135H56.6493V161.568H57.9781V169.681H56.6493V166.254H52.5929V169.681H51.2641Z" fill="white"/>
    <path d="M64.6221 169.75C63.9926 169.75 63.4331 169.68 62.9436 169.471C62.454 169.261 62.1043 168.981 61.7546 168.631C61.4049 168.282 61.1951 167.792 61.0553 167.302C60.9154 166.813 60.8455 166.253 60.8455 165.624C60.8455 164.995 60.9154 164.505 61.1252 164.015C61.335 163.526 61.5448 163.036 61.8246 162.687C62.1043 162.337 62.5239 161.987 63.0135 161.777C63.5031 161.568 64.0626 161.428 64.7619 161.428C65.1816 161.428 65.5312 161.428 65.8809 161.568C66.2306 161.638 66.5104 161.777 66.7901 161.987C67.0699 162.197 67.3496 162.407 67.4895 162.757C67.6294 163.106 67.8392 163.456 67.9091 163.876H66.5803C66.4404 163.456 66.1607 163.106 65.8809 162.896C65.5312 162.687 65.1816 162.617 64.692 162.617C64.2724 162.617 63.8527 162.687 63.5031 162.896C63.1534 163.036 62.8736 163.316 62.7338 163.596C62.524 163.876 62.3841 164.155 62.3141 164.575C62.2442 164.925 62.1743 165.344 62.1743 165.694C62.1743 166.044 62.1743 166.463 62.3141 166.813C62.3841 167.163 62.5939 167.512 62.7338 167.722C62.8736 167.932 63.2233 168.212 63.5031 168.352C63.7828 168.491 64.2024 168.561 64.6221 168.561C64.8319 168.561 65.0417 168.561 65.2515 168.561C65.4613 168.561 65.6711 168.421 65.811 168.352C66.0208 168.282 66.1607 168.142 66.3006 167.932C66.4404 167.792 66.5104 167.582 66.5803 167.302H67.9091C67.8392 167.722 67.6993 168.072 67.4895 168.421C67.2797 168.701 66.9999 168.981 66.7202 169.191C66.4404 169.401 66.0908 169.54 65.7411 169.61C65.3914 169.68 64.9718 169.75 64.5521 169.75H64.6221Z" fill="white"/>
    <path d="M70.8466 169.681V161.568H72.1754V165.065H73.5741L75.952 161.568H77.4207L74.6931 165.414L77.6305 169.681H76.0919L73.644 166.184H72.1054V169.681H70.7766H70.8466Z" fill="white"/>
    <path d="M83.3653 161.428C83.9948 161.428 84.5543 161.498 85.0439 161.707C85.5334 161.917 85.8831 162.197 86.2328 162.547C86.5825 162.896 86.7923 163.386 86.9322 163.876C87.072 164.365 87.142 164.925 87.142 165.554C87.142 166.183 87.072 166.743 86.9322 167.233C86.7923 167.722 86.5125 168.142 86.2328 168.561C85.8831 168.911 85.5334 169.191 85.0439 169.401C84.5543 169.61 83.9948 169.68 83.3653 169.68C82.7359 169.68 82.1764 169.61 81.6869 169.401C81.1973 169.191 80.8476 168.911 80.4979 168.561C80.1482 168.212 79.9384 167.792 79.7985 167.233C79.6587 166.743 79.5887 166.183 79.5887 165.554C79.5887 164.925 79.6587 164.365 79.7985 163.876C79.9384 163.386 80.2182 162.966 80.4979 162.547C80.8476 162.197 81.1973 161.917 81.6869 161.707C82.1764 161.498 82.7359 161.428 83.4353 161.428H83.3653ZM83.3653 168.561C83.785 168.561 84.2046 168.491 84.4843 168.352C84.834 168.212 85.0438 168.002 85.2537 167.722C85.4635 167.442 85.6033 167.163 85.7432 166.813C85.8132 166.463 85.8831 166.044 85.8831 165.624C85.8831 165.204 85.8831 164.855 85.7432 164.435C85.6733 164.085 85.4635 163.736 85.2537 163.456C85.0438 163.176 84.7641 162.966 84.4843 162.826C84.1347 162.687 83.785 162.617 83.3653 162.617C82.9457 162.617 82.5261 162.687 82.2463 162.826C81.9666 162.966 81.6869 163.176 81.4771 163.456C81.2672 163.736 81.1273 164.015 80.9875 164.435C80.9175 164.785 80.8476 165.204 80.8476 165.624C80.8476 166.044 80.8476 166.463 80.9875 166.813C81.0574 167.163 81.2672 167.512 81.4771 167.722C81.6869 168.002 81.9666 168.212 82.2463 168.352C82.596 168.491 82.9457 168.561 83.3653 168.561Z" fill="white"/>
    <path d="M91.4082 169.68H90.1493V161.568H91.4781V167.792C91.4781 167.792 91.618 167.512 91.7578 167.303C91.8977 167.093 91.9677 167.023 92.0376 166.883L95.9541 161.498H97.2829V169.611H95.9541V163.386C95.9541 163.386 95.8142 163.666 95.6744 163.806C95.6044 163.946 95.4645 164.085 95.3946 164.155L91.4082 169.541V169.68ZM93.786 159.47C94.2057 159.47 94.5554 159.4 94.8351 159.19C95.1149 159.05 95.2547 158.77 95.2547 158.351H96.4437C96.4437 159.12 96.1639 159.609 95.7443 159.959C95.2547 160.309 94.6253 160.449 93.856 160.449C93.0867 160.449 92.3873 160.309 91.9677 159.959C91.4781 159.609 91.2683 159.12 91.2683 158.351H92.4572C92.4572 158.77 92.5971 159.05 92.8768 159.19C93.1566 159.33 93.5063 159.47 93.9259 159.47H93.786Z" fill="white"/>
    <path d="M109.312 161.428C109.942 161.428 110.501 161.498 110.991 161.707C111.48 161.917 111.83 162.197 112.18 162.547C112.529 162.896 112.739 163.386 112.879 163.876C113.019 164.365 113.089 164.925 113.089 165.554C113.089 166.183 113.019 166.743 112.879 167.233C112.739 167.722 112.459 168.142 112.18 168.561C111.83 168.911 111.48 169.191 110.991 169.401C110.501 169.61 109.942 169.68 109.312 169.68C108.683 169.68 108.123 169.61 107.634 169.401C107.144 169.191 106.794 168.911 106.445 168.561C106.095 168.212 105.885 167.792 105.745 167.233C105.605 166.743 105.536 166.183 105.536 165.554C105.536 164.925 105.605 164.365 105.745 163.876C105.885 163.386 106.165 162.966 106.445 162.547C106.794 162.197 107.144 161.917 107.634 161.707C108.123 161.498 108.683 161.428 109.382 161.428H109.312ZM109.312 168.561C109.732 168.561 110.151 168.491 110.431 168.352C110.781 168.212 110.991 168.002 111.2 167.722C111.41 167.442 111.55 167.163 111.69 166.813C111.76 166.463 111.83 166.044 111.83 165.624C111.83 165.204 111.83 164.855 111.69 164.435C111.62 164.085 111.41 163.736 111.2 163.456C110.991 163.176 110.711 162.966 110.431 162.826C110.081 162.687 109.732 162.617 109.312 162.617C108.893 162.617 108.473 162.687 108.193 162.826C107.913 162.966 107.634 163.176 107.424 163.456C107.214 163.736 107.074 164.015 106.934 164.435C106.864 164.785 106.794 165.204 106.794 165.624C106.794 166.044 106.794 166.463 106.934 166.813C107.004 167.163 107.214 167.512 107.424 167.722C107.634 168.002 107.913 168.212 108.193 168.352C108.543 168.491 108.893 168.561 109.312 168.561Z" fill="white"/>
    <path d="M117.215 163.386C117.215 163.386 117.565 162.966 117.775 162.827C117.984 162.687 118.194 162.547 118.474 162.477C118.754 162.407 118.963 162.267 119.243 162.267C119.523 162.267 119.733 162.267 119.943 162.267C120.502 162.267 120.992 162.337 121.411 162.547C121.831 162.757 122.181 162.966 122.46 163.316C122.74 163.666 122.95 164.016 123.16 164.505C123.3 164.925 123.37 165.484 123.37 165.974C123.37 166.463 123.3 167.023 123.09 167.512C122.88 168.002 122.67 168.422 122.39 168.771C122.111 169.121 121.691 169.401 121.201 169.611C120.712 169.82 120.222 169.89 119.593 169.89C118.894 169.89 118.334 169.75 117.914 169.541C117.425 169.261 117.075 168.981 116.795 168.561C116.516 168.142 116.306 167.652 116.166 167.093C116.026 166.533 115.956 165.974 115.956 165.414C115.956 165.274 115.956 164.925 115.956 164.435C115.956 163.946 115.956 163.526 115.956 163.106C115.956 162.687 116.096 162.267 116.166 161.917C116.236 161.498 116.376 161.218 116.586 160.868C116.865 160.379 117.215 160.029 117.635 159.749C118.054 159.54 118.544 159.33 119.103 159.26C119.313 159.26 119.663 159.19 120.292 159.05C120.922 158.98 121.341 158.91 121.551 158.84C121.761 158.84 121.971 158.84 122.181 158.77C122.39 158.77 122.67 158.77 122.88 158.63V159.819C122.88 159.819 122.53 159.889 122.32 159.959C122.111 159.959 121.831 160.029 121.551 160.029C121.341 160.029 121.132 160.029 120.922 160.099H120.222C120.222 160.099 119.663 160.239 119.173 160.309C118.824 160.309 118.544 160.449 118.334 160.589C118.124 160.728 117.914 160.938 117.775 161.148C117.565 161.428 117.425 161.778 117.355 162.197C117.285 162.617 117.215 162.966 117.215 163.316V163.386ZM119.663 168.631C120.013 168.631 120.362 168.561 120.642 168.422C120.922 168.282 121.201 168.072 121.411 167.862C121.621 167.652 121.761 167.303 121.901 167.023C122.041 166.743 122.041 166.323 122.041 165.974C122.041 165.624 122.041 165.274 121.901 164.995C121.761 164.715 121.621 164.435 121.411 164.155C121.201 163.946 120.992 163.736 120.712 163.596C120.432 163.456 120.082 163.386 119.733 163.386C119.383 163.386 119.033 163.456 118.754 163.596C118.474 163.736 118.194 163.946 117.984 164.155C117.775 164.365 117.635 164.645 117.495 164.995C117.425 165.274 117.355 165.624 117.355 165.974C117.355 166.323 117.355 166.673 117.495 167.023C117.565 167.373 117.705 167.652 117.914 167.862C118.124 168.142 118.334 168.282 118.614 168.422C118.894 168.561 119.243 168.631 119.663 168.631Z" fill="white"/>
    <path d="M126.936 165.834C126.936 165.065 127.006 164.365 127.076 163.666C127.146 162.967 127.076 162.267 127.076 161.498H132.741V169.611H131.412V162.687H128.335L128.195 165.904C128.195 166.324 128.195 166.743 128.055 167.303C127.985 167.792 127.846 168.282 127.636 168.702C127.496 168.981 127.216 169.261 126.936 169.401C126.657 169.611 126.307 169.681 125.887 169.681H125.398V168.492C125.817 168.492 126.167 168.352 126.377 168.002C126.517 167.792 126.657 167.513 126.727 167.093C126.797 166.673 126.866 166.254 126.866 165.834H126.936Z" fill="white"/>
    <path d="M141.274 168.631C141.274 168.631 140.924 169.051 140.644 169.191C140.364 169.331 140.155 169.471 139.945 169.541C139.735 169.611 139.455 169.68 139.245 169.68C139.036 169.68 138.756 169.68 138.546 169.68C138.196 169.68 137.777 169.68 137.497 169.541C137.147 169.471 136.867 169.331 136.588 169.121C136.308 168.911 136.098 168.631 135.958 168.352C135.818 168.072 135.748 167.722 135.748 167.303C135.748 166.813 135.818 166.463 136.028 166.114C136.168 165.834 136.448 165.554 136.728 165.344C137.007 165.135 137.357 164.995 137.707 164.925C138.056 164.855 138.476 164.785 138.896 164.785H141.274C141.274 164.085 141.134 163.526 140.854 163.176C140.574 162.757 140.085 162.547 139.385 162.547C138.966 162.547 138.546 162.547 138.266 162.757C137.986 162.966 137.707 163.106 137.567 163.456H136.168C136.168 163.106 136.378 162.757 136.588 162.477C136.798 162.197 137.077 161.987 137.357 161.847C137.637 161.708 137.986 161.568 138.336 161.498C138.686 161.428 139.036 161.358 139.385 161.358C140.015 161.358 140.504 161.428 140.924 161.638C141.343 161.847 141.693 162.127 141.903 162.407C142.183 162.757 142.323 163.106 142.462 163.596C142.532 164.085 142.602 164.575 142.602 165.135V169.541H141.483V168.492L141.274 168.631ZM139.665 165.974C139.665 165.974 139.105 165.974 138.826 165.974C138.476 165.974 138.196 165.974 137.917 166.044C137.637 166.114 137.357 166.254 137.217 166.393C137.007 166.603 136.937 166.813 136.937 167.163C136.937 167.373 136.937 167.582 137.077 167.722C137.147 167.862 137.287 168.002 137.427 168.142C137.567 168.282 137.777 168.352 137.986 168.422C138.196 168.422 138.406 168.492 138.616 168.492C139.385 168.492 140.015 168.282 140.434 167.932C140.854 167.582 141.134 167.023 141.134 166.323V165.904H139.665V165.974Z" fill="white"/>
    <path d="M149.106 169.75C148.477 169.75 147.918 169.68 147.428 169.471C146.938 169.261 146.589 168.981 146.239 168.631C145.889 168.282 145.68 167.792 145.54 167.302C145.4 166.813 145.33 166.253 145.33 165.624C145.33 164.995 145.4 164.505 145.61 164.015C145.819 163.526 146.029 163.036 146.309 162.687C146.589 162.337 147.008 161.987 147.498 161.777C147.987 161.568 148.547 161.428 149.246 161.428C149.666 161.428 150.016 161.428 150.365 161.568C150.715 161.638 150.995 161.777 151.275 161.987C151.554 162.197 151.834 162.407 151.974 162.757C152.114 163.106 152.324 163.456 152.394 163.876H151.065C150.925 163.456 150.645 163.106 150.365 162.896C150.016 162.687 149.666 162.617 149.176 162.617C148.757 162.617 148.337 162.687 147.987 162.896C147.638 163.036 147.358 163.316 147.218 163.596C147.008 163.876 146.868 164.155 146.799 164.575C146.729 164.925 146.659 165.344 146.659 165.694C146.659 166.044 146.659 166.463 146.799 166.813C146.868 167.163 147.078 167.512 147.218 167.722C147.358 167.932 147.708 168.212 147.987 168.352C148.267 168.491 148.687 168.561 149.106 168.561C149.316 168.561 149.526 168.561 149.736 168.561C149.946 168.561 150.156 168.421 150.295 168.352C150.505 168.282 150.645 168.142 150.785 167.932C150.925 167.792 150.995 167.582 151.065 167.302H152.394C152.324 167.722 152.184 168.072 151.974 168.421C151.764 168.701 151.484 168.981 151.205 169.191C150.925 169.401 150.575 169.54 150.225 169.61C149.876 169.68 149.456 169.75 149.037 169.75H149.106Z" fill="white"/>
    <path d="M161.276 161.568V162.757H158.478V169.681H157.149V162.757H154.352V161.568H161.206H161.276Z" fill="white"/>
    <path d="M164.842 169.681H163.584V161.568H164.912V167.792C164.912 167.792 165.052 167.513 165.192 167.303C165.332 167.093 165.402 167.023 165.472 166.883L169.388 161.498H170.717V169.611H169.388V163.386C169.388 163.386 169.248 163.666 169.109 163.806C169.039 163.946 168.899 164.086 168.829 164.156L164.842 169.541V169.681Z" fill="white"/>
    <path d="M5.2453 93.6587V101.422H0V81H5.2453V88.833H8.04281L12.4488 81H18.3935L12.309 90.7912L18.3236 101.422H12.239L8.11273 93.6587H5.17535H5.2453Z" fill="white"/>
    <path d="M28.8842 81C30.0732 81 31.1921 81.1399 32.1713 81.3497C33.1504 81.5595 33.9896 81.9791 34.759 82.5386C35.4583 83.0981 36.0178 83.8674 36.4374 84.7766C36.8571 85.6858 36.997 86.8747 36.997 88.2036C36.997 89.6023 36.7172 90.7912 36.1577 91.8403C35.5982 92.8194 34.8988 93.6587 33.9896 94.2881C33.2903 94.7777 32.451 95.1274 31.5418 95.4071C30.6326 95.6169 29.6535 95.7568 28.6744 95.7568H25.5272V101.492H20.2819V81H28.8143H28.8842ZM28.6744 91.001C29.6535 91.001 30.4228 90.7912 30.9823 90.3017C31.5418 89.8121 31.8216 89.1827 31.8216 88.3434C31.8216 87.5042 31.6118 86.8048 31.1222 86.4551C30.6326 86.0355 29.7934 85.8257 28.6744 85.8257H25.5972V91.001H28.7443H28.6744Z" fill="white"/>
    <path d="M54.9708 81V85.8257H44.8299V88.9729H53.2224V93.5887H44.8299V96.596H54.9708V101.422H39.5846V81H54.9708Z" fill="white"/>
    <path d="M61.2652 101.422H55.6702L63.8529 81H69.1681L77.2808 101.422H71.6858L70.7067 98.5543H62.3841L61.3351 101.422H61.2652ZM68.9583 93.8685L66.5105 86.8747L63.9228 93.8685H68.9583Z" fill="white"/>
    <path d="M75.2526 85.8257V81H92.5971V85.8257H86.5125V101.422H81.2672V85.8257H75.1827H75.2526Z" fill="white"/>
    <path d="M99.8705 92.3998L108.892 81H113.019V101.422H107.773V90.1618L98.7515 101.352H94.6952V81H99.9405V92.3998H99.8705Z" fill="white"/>
    <path d="M116.795 101.422V81H126.936C127.776 81 128.615 81.0699 129.384 81.2797C130.154 81.4896 130.783 81.7693 131.342 82.1889C131.902 82.6086 132.322 83.1681 132.671 83.8674C133.021 84.5668 133.161 85.4061 133.161 86.4551C133.161 87.1545 133.021 87.9238 132.671 88.5532C132.322 89.1827 131.902 89.7422 131.273 90.1618C132.112 90.5115 132.741 91.1409 133.231 91.9102C133.72 92.6795 134 93.6587 134 94.9175C134 96.0365 133.79 97.0157 133.371 97.785C132.951 98.5543 132.461 99.2537 131.902 99.7432C131.063 100.443 130.014 100.932 128.895 101.142C127.776 101.352 126.587 101.422 125.328 101.422H116.865H116.795ZM125.678 88.9729C126.517 88.9729 127.076 88.833 127.426 88.4833C127.776 88.1336 127.916 87.7839 127.916 87.2944C127.916 86.8048 127.776 86.3852 127.426 86.1754C127.076 85.9656 126.587 85.8257 125.887 85.8257H121.971V88.9729H125.608H125.678ZM122.041 96.666H126.167C127.076 96.666 127.776 96.5261 128.125 96.1764C128.545 95.8267 128.755 95.4071 128.755 94.8476C128.755 93.7286 127.985 93.1691 126.377 93.1691H122.041V96.596V96.666Z" fill="white"/>
    <path d="M141.973 88.9029H149.386V81H154.632V101.422H149.386V93.7286H141.973V101.422H136.728V81H141.973V88.9029Z" fill="white"/>
    <path d="M158.408 101.422V81H163.653V87.9937H166.311C167.22 87.9937 168.129 88.0637 169.109 88.2735C170.088 88.4833 170.857 88.833 171.626 89.3225C172.396 89.8121 172.955 90.4415 173.445 91.2808C173.934 92.12 174.144 93.1691 174.144 94.428C174.144 95.8267 173.864 96.9457 173.305 97.785C172.745 98.6242 172.116 99.3935 171.277 99.8831C170.437 100.443 169.528 100.792 168.479 101.002C167.43 101.212 166.381 101.282 165.332 101.282H158.478L158.408 101.422ZM163.653 96.596H165.542C166.031 96.596 166.521 96.596 166.941 96.5261C167.36 96.5261 167.71 96.3163 168.059 96.1764C168.339 96.0365 168.619 95.8267 168.759 95.547C168.899 95.2672 169.039 94.9175 169.039 94.4979C169.039 94.1482 168.969 93.7985 168.759 93.5188C168.549 93.239 168.339 93.0992 168.059 92.9593C167.78 92.8194 167.43 92.7495 167.08 92.6795C166.661 92.6795 166.311 92.6795 165.891 92.6795H163.793V96.666L163.653 96.596ZM176.452 81H181.697V101.422H176.452V81Z" fill="white"/>
    <path d="M200.86 81V85.8257H190.719V88.9729H199.112V93.5887H190.719V96.596H200.86V101.422H185.474V81H200.86Z" fill="white"/>
    <path d="M5.24532 120.375L14.2673 108.975H18.3936V129.397H13.1483V118.207L4.12633 129.397H0.0699463V108.975H5.31525V120.375H5.24532Z" fill="white"/>
    <path d="M29.6534 116.878H37.0668V108.975H42.3121V129.397H37.0668V121.704H29.6534V129.397H24.4081V108.975H29.6534V116.878Z" fill="white"/>
    <path d="M68.0491 134.222H62.8038V129.397H51.8936V134.222H46.6483V124.571C47.4875 124.571 48.1169 124.291 48.5366 123.802C48.9562 123.312 49.236 122.683 49.3758 121.983C49.6556 120.794 49.7955 119.675 49.8654 118.486C49.9353 117.367 50.0053 116.178 50.0752 115.059C50.0752 114.01 50.0752 112.961 50.1451 111.912C50.1451 110.863 50.1451 109.884 50.1451 108.835H65.4614V124.431H67.9092V134.082L68.0491 134.222ZM54.9009 119.256C54.9009 119.256 54.9009 120.025 54.8309 120.445C54.8309 120.934 54.8309 121.354 54.6911 121.843C54.6911 122.333 54.5512 122.822 54.4113 123.312C54.2714 123.802 54.1316 124.221 53.9917 124.571H60.356V113.801H54.9708C54.9708 114.71 54.9708 115.409 54.9708 116.039C54.9708 116.598 54.9708 117.088 54.9708 117.507C54.9708 117.927 54.9708 118.207 54.9708 118.486C54.9708 118.766 54.9708 118.976 54.9708 119.256H54.9009Z" fill="white"/>
    <path d="M84.4145 108.975H89.9395L84.3445 121.913C83.855 123.102 83.3654 124.081 82.8758 124.99C82.3863 125.9 81.8268 126.669 81.1274 127.298C80.428 127.928 79.6587 128.417 78.6796 128.767C77.7005 129.117 76.5115 129.257 75.0428 129.257H73.8539V124.291H74.833C75.6723 124.291 76.3717 124.151 76.9312 123.941C77.4907 123.732 77.9103 123.312 78.3299 122.752L70.6368 108.835H76.7214L81.0575 117.857L84.5543 108.835L84.4145 108.975Z" fill="white"/>
    <path d="M97.9123 119.116C97.9123 119.745 97.9823 120.445 98.1921 121.074C98.4019 121.704 98.6117 122.333 99.0313 122.823C99.381 123.382 99.8706 123.802 100.5 124.151C101.129 124.501 101.899 124.641 102.738 124.641C103.857 124.641 104.766 124.361 105.466 123.872C106.165 123.382 106.585 122.683 106.794 121.774H111.83C111.76 123.032 111.41 124.221 110.851 125.201C110.291 126.18 109.592 127.019 108.823 127.648C107.983 128.278 107.004 128.767 105.955 129.117C104.906 129.467 103.787 129.607 102.598 129.607C100.99 129.607 99.5908 129.397 98.332 128.907C97.0731 128.418 96.024 127.718 95.1148 126.809C94.2756 125.9 93.5762 124.781 93.0867 123.522C92.5971 122.193 92.3873 120.794 92.3873 119.186C92.3873 117.577 92.5971 116.179 93.0867 114.85C93.5762 113.591 94.2756 112.472 95.1148 111.563C96.024 110.654 97.0731 109.954 98.332 109.465C99.5908 108.975 100.99 108.695 102.458 108.695C103.647 108.695 104.766 108.835 105.815 109.185C106.864 109.535 107.773 110.024 108.613 110.654C109.452 111.283 110.081 112.122 110.571 113.101C111.061 114.08 111.41 115.199 111.48 116.528H106.515C106.305 115.619 105.885 114.92 105.186 114.36C104.556 113.871 103.647 113.591 102.528 113.591C101.619 113.591 100.92 113.731 100.29 114.08C99.6608 114.43 99.1712 114.85 98.8215 115.339C98.4718 115.829 98.1921 116.458 97.9823 117.088C97.8424 117.717 97.7025 118.417 97.7025 119.116H97.9123Z" fill="white"/>
    <path d="M114.837 113.801V108.975H132.182V113.801H126.097V129.397H120.852V113.801H114.767H114.837Z" fill="white"/>
    <path d="M145.12 108.975C146.309 108.975 147.428 109.115 148.407 109.325C149.386 109.535 150.225 109.954 150.995 110.514C151.694 111.073 152.254 111.843 152.673 112.752C153.093 113.661 153.233 114.85 153.233 116.179C153.233 117.577 152.953 118.766 152.394 119.815C151.834 120.795 151.135 121.634 150.226 122.263C149.526 122.753 148.687 123.102 147.778 123.382C146.868 123.592 145.889 123.732 144.91 123.732H141.763V129.467H136.518V109.045H145.05L145.12 108.975ZM144.91 118.976C145.889 118.976 146.659 118.766 147.218 118.277C147.778 117.787 148.057 117.158 148.057 116.319C148.057 115.479 147.848 114.78 147.358 114.43C146.868 114.011 146.029 113.801 144.91 113.801H141.833V118.976H144.98H144.91Z" fill="white"/>
    <path d="M163.374 120.375L172.396 108.975H176.522V129.397H171.277V118.207L162.255 129.397H158.198V108.975H163.444V120.375H163.374Z" fill="white"/>
    <path d="M187.852 120.375L196.874 108.975H201V129.397H195.755V118.207L186.733 129.397H182.677V108.975H187.922V120.375H187.852Z" fill="white"/>
    <path d="M23.5821 0H0V46.2781H23.5821V0Z" fill="#B42024"/>
    <path d="M200.473 36.0874L176.398 52.7771V62.4758H201.408V36.0874H200.473Z" fill="#B42024"/>
    <path d="M177.334 28.7023L201.408 12.0126V0H176.398V28.7023H177.334Z" fill="#B42024"/>
    <path d="M46.2781 0V47.2135L61.5401 62.4755H69.4664V0H46.2781Z" fill="#B42024"/>
    <path d="M116.68 0H92.1624V62.4755H116.04L95.8548 32.3947L116.68 0Z" fill="#B42024"/>
    <path d="M142.133 0L120.372 32.3947L141.444 62.4755H153.752V0H142.133Z" fill="#B42024"/>
</svg>
