<svg xmlns="http://www.w3.org/2000/svg" display="none">

    <symbol id="arrow-right" viewBox="0 0 42 26">
        <path d="M28.5952 25L40.5 13M40.5 13L28.5952 1M40.5 13H0.5" stroke-width="2"
              stroke-miterlimit="10"/>
    </symbol>

    <symbol id="arrow-left" viewBox="0 0 43 28">
        <path d="M14.2024 0.999998L2 14M2 14L14.2024 27M2 14L43 14" stroke-width="2"
              stroke-miterlimit="10"/>
    </symbol>

    <symbol id="arrow-prev" viewBox="0 0 13 22">
        <path d="M12 1L2 11L12 21" stroke-width="2"/>
    </symbol>

    <symbol id="arrow-next" viewBox="0 0 13 22">
        <path d="M1 1L11 11L1 21" stroke-width="2"/>
    </symbol>

    <symbol id="location" viewBox="0 0 11 15">
        <path d="M11 5.22727C11 8.11422 5.5 15 5.5 15C5.5 15 0 8.11422 0 5.22727C0 2.34033 2.46243 0 5.5 0C8.53757 0 11 2.34033 11 5.22727Z"/>
    </symbol>

</svg>