<svg width="20" height="20" viewBox="0 0 20 20" fill="none" xmlns="http://www.w3.org/2000/svg">
    <path fill-rule="evenodd" clip-rule="evenodd" d="M0 9.66251C4.05693 9.61584 6.32758 9.3503 7.83894 7.83894C9.3503 6.32758 9.61584 4.05693 9.66251 0C4.37323 0.104999 0.104999 4.37323 0 9.66251ZM10.2515 0.00556548C10.2984 4.059 10.5643 6.32827 12.075 7.83894C13.5627 9.32658 15.786 9.6072 19.7242 9.66011C19.6193 4.43534 15.452 0.207447 10.2515 0.00556548ZM19.7186 10.2539C15.7838 10.307 13.562 10.5881 12.075 12.075C10.5881 13.562 10.307 15.7838 10.2539 19.7186C15.3902 19.518 19.518 15.3902 19.7186 10.2539ZM9.66015 19.7242C9.6072 15.786 9.32658 13.5627 7.83894 12.075C6.32827 10.5643 4.05901 10.2984 0.00556545 10.2515C0.207447 15.452 4.43536 19.6193 9.66015 19.7242Z" fill="#B42024"/>
</svg>
