<svg width="47" height="28" viewBox="0 0 47 28" fill="none" xmlns="http://www.w3.org/2000/svg">
    <path d="M46.5811 24.9742C46.4548 24.7534 45.6733 22.9805 41.913 19.3365C37.9765 15.5208 38.5053 16.1404 43.2468 9.54264C46.1345 5.52447 47.2891 3.07063 46.9277 2.02161C46.584 1.02167 44.46 1.28546 44.46 1.28546L37.3978 1.3284C37.3978 1.3284 36.8749 1.25479 36.4841 1.4971C36.1052 1.73635 35.8614 2.28847 35.8614 2.28847C35.8614 2.28847 34.7421 5.39871 33.2497 8.04273C30.1034 13.6221 28.8432 13.9166 28.3291 13.57C27.1334 12.7633 27.433 10.3248 27.433 8.59484C27.433 3.18719 28.2174 0.93272 25.9025 0.349932C25.1328 0.156692 24.5688 0.0278656 22.6034 0.00639444C20.0829 -0.0212113 17.9472 0.0155963 16.7398 0.632124C15.9348 1.04314 15.315 1.96027 15.6939 2.01241C16.161 2.07682 17.2186 2.30994 17.7797 3.10744C18.5053 4.13498 18.4789 6.44773 18.4789 6.44773C18.4789 6.44773 18.896 12.8124 17.5065 13.6037C16.5517 14.1467 15.2445 13.0394 12.4389 7.97525C11.0024 5.38338 9.91545 2.51545 9.91545 2.51545C9.91545 2.51545 9.70687 1.98174 9.33378 1.69648C8.88137 1.34987 8.24682 1.23945 8.24682 1.23945L1.53121 1.28239C1.53121 1.28239 0.523569 1.31307 0.153417 1.77009C-0.175607 2.17805 0.126978 3.01849 0.126978 3.01849C0.126978 3.01849 5.38549 15.8613 11.3373 22.3364C16.7985 28.2716 22.9971 27.882 22.9971 27.882H25.8056C25.8056 27.882 26.6546 27.7839 27.0864 27.2962C27.4859 26.8484 27.4712 26.0079 27.4712 26.0079C27.4712 26.0079 27.4154 22.0726 29.1663 21.4928C30.8907 20.9223 33.1058 25.2963 35.453 26.9803C37.2274 28.2532 38.5758 27.9741 38.5758 27.9741L44.8537 27.882C44.8537 27.882 48.1381 27.6704 46.5811 24.9742Z" fill="black"/>
</svg>
