<svg width="47" height="32" viewBox="0 0 47 32" fill="none" xmlns="http://www.w3.org/2000/svg">
    <path d="M46.0316 5.00724C45.49 3.04925 43.9025 1.5058 41.8893 0.978573C38.2114 0 23.4995 0 23.4995 0C23.4995 0 8.78813 0 5.11023 0.941472C3.13573 1.46814 1.50949 3.04953 0.967885 5.00724C0 8.58343 0 16 0 16C0 16 0 23.4539 0.967885 26.9928C1.51006 28.9505 3.097 30.4939 5.11051 31.0211C8.82686 32 23.5 32 23.5 32C23.5 32 38.2114 32 41.8893 31.0585C43.9028 30.5316 45.49 28.9881 46.0322 27.0304C46.9998 23.4539 46.9998 16.0377 46.9998 16.0377C46.9998 16.0377 47.0385 8.58343 46.0316 5.00724ZM18.8155 22.8517V9.14832L31.0492 16L18.8155 22.8517Z" fill="black"/>
</svg>
